<?xml version="1.0" encoding="utf-8"?>
<!-- Generator: Adobe Illustrator 27.5.0, SVG Export Plug-In . SVG Version: 6.00 Build 0)  -->
<svg version="1.1" xmlns="http://www.w3.org/2000/svg" xmlns:xlink="http://www.w3.org/1999/xlink" x="0px" y="0px"
	 viewBox="0 0 500 500" style="enable-background:new 0 0 500 500;" xml:space="preserve">
<g id="Background_Complete">
	<g>
		<g>
			<g>
				<g>
					<g>
						<path style="fill:#EBEBEB;" d="M440.444,341.777c7.251-3.741,15.789-4.227,23.839-2.897c4.325,0.715,8.833,2.009,11.776,5.257
							c2.943,3.249,3.5,8.965,0.122,11.757c-2.012,1.661-4.817,1.914-7.425,1.884c-6.301-0.073-13.294-1.183-18.328,2.608
							c-2.872,2.163-4.784,5.759-8.218,6.823c-3.36,1.041-7.151-0.942-8.933-3.974c-1.781-3.032-1.841-6.823-1.01-10.24
							C432.265,352.995,433.14,345.546,440.444,341.777z"/>
					</g>
				</g>
			</g>
			<g>
				<g>
					<g>
						<path style="fill:#EBEBEB;" d="M423.832,309.708c4.434,6.332,13.051,4.236,17.047,0.371c3.995-3.866,5.684-9.467,7.221-14.81
							c3.512-12.206,7.054-25.011,4.442-37.441c-0.781-3.716-2.17-7.422-4.782-10.179c-2.611-2.757-6.627-4.397-10.298-3.427
							c-4.345,1.148-7.045,5.403-8.997,9.452c-5.737,11.899-8.775,25.091-8.819,38.301
							C419.624,298.145,420.351,304.615,423.832,309.708"/>
					</g>
				</g>
			</g>
			<g>
				<g>
					<g>
						<path style="fill:#EBEBEB;" d="M411.656,318.794c4.814-5.713,5.727-14.047,3.586-21.204
							c-2.142-7.158-6.982-13.246-12.559-18.218c-6.539-5.828-14.226-10.363-22.489-13.269c-3.252-1.143-6.682-2.046-10.114-1.718
							c-3.432,0.327-6.887,2.082-8.488,5.135c-2.367,4.514-0.098,9.989,2.357,14.456c4.324,7.87,9.268,15.398,14.771,22.493
							c4.427,5.708,9.499,11.338,16.246,13.918c6.747,2.579,13.756,2.276,17.333-2.403"/>
					</g>
				</g>
			</g>
			<g>
				<g>
					<g>
						<g>
							<path style="fill:#E0E0E0;" d="M423.531,405.233c0.083,0.005,0.218-1.021,0.401-2.877c0.204-2.095,0.46-4.724,0.764-7.853
								c0.366-3.304,0.849-7.237,1.767-11.519c0.915-4.271,2.347-8.9,4.187-13.595c1.905-4.667,4.227-8.908,6.942-12.301
								c2.695-3.408,5.83-5.874,8.776-7.296c2.937-1.451,5.571-2.04,7.391-2.302c1.836-0.188,2.864-0.333,2.865-0.415
								c0.001-0.082-1.029-0.095-2.916-0.045c-1.868,0.125-4.612,0.598-7.707,2.005c-3.105,1.377-6.431,3.882-9.258,7.36
								c-2.85,3.463-5.258,7.799-7.196,12.548c-1.871,4.777-3.282,9.454-4.157,13.817c-0.872,4.357-1.27,8.332-1.531,11.664
								c-0.249,3.335-0.344,6.035-0.389,7.902C423.429,404.194,423.451,405.228,423.531,405.233z"/>
						</g>
					</g>
				</g>
			</g>
			<g>
				<g>
					<g>
						<g>
							<path style="fill:#E0E0E0;" d="M424.073,399.19c0.041-0.002,0.066-0.462,0.077-1.336c-0.003-1.003-0.006-2.267-0.01-3.818
								c-0.009-3.313-0.008-8.109,0.17-14.029c0.293-11.842,1.313-24.587,3.282-42.556c1.865-16.896,4.368-36.559,7.01-49.344
								c0.566-2.907,1.137-5.524,1.674-7.815c0.512-2.296,0.949-4.276,1.371-5.878c0.363-1.508,0.658-2.736,0.892-3.711
								c0.191-0.852,0.273-1.306,0.234-1.317c-0.039-0.011-0.198,0.42-0.464,1.252c-0.291,0.961-0.658,2.172-1.108,3.659
								c-0.492,1.587-0.996,3.554-1.571,5.841c-0.6,2.282-1.229,4.892-1.849,7.795c-2.614,11.584-5.381,27.774-7.369,45.786
								c-1.974,18.006-2.862,34.401-2.941,46.273c-0.071,5.936,0.056,10.741,0.207,14.057c0.095,1.551,0.172,2.813,0.233,3.816
								C423.977,398.736,424.032,399.192,424.073,399.19z"/>
						</g>
					</g>
				</g>
			</g>
			<g>
				<g>
					<g>
						<g>
							<path style="fill:#E0E0E0;" d="M424.152,367.569c0.082-0.003,0.068-1.42-0.028-3.989c-0.147-2.563-0.499-6.268-1.221-10.806
								c-0.766-4.527-1.835-9.903-3.514-15.744c-0.728-2.67-2.439-9.068-6.584-18.629c-5.461-12.954-12.88-23.545-19.334-30.105
								c-1.514-1.741-3.2-2.997-4.548-4.228c-0.698-0.59-1.315-1.178-1.943-1.644c-0.632-0.435-1.219-0.84-1.764-1.216
								c-2.124-1.453-3.314-2.219-3.358-2.15c-0.191,0.259,4.758,3.171,11.006,9.819c6.223,6.633,13.435,17.151,18.851,29.996
								c3.021,6.967,5.127,13.182,6.621,18.458c1.727,5.784,2.873,11.105,3.739,15.587c0.823,4.492,1.3,8.16,1.588,10.699
								C423.9,366.162,424.07,367.572,424.152,367.569z"/>
						</g>
					</g>
				</g>
			</g>
		</g>
		<g>
			<g>
				<g>
					<polygon style="fill:#E0E0E0;" points="393.588,423.349 396.757,466.758 452.523,466.758 455.692,423.349 					"/>
				</g>
			</g>
		</g>
		<g>
			<g>
				<g>
					<rect x="388.202" y="406.239" style="fill:#E0E0E0;" width="74.144" height="17.11"/>
				</g>
			</g>
		</g>
		<g>
			<g>
				<g>
					<polygon style="fill:#EBEBEB;" points="388.202,465.097 388.202,469.84 391.686,469.84 461.121,469.84 461.121,465.097 					
						"/>
				</g>
			</g>
		</g>
		<g>
			<g>
				<g>
					<polygon style="fill:#E0E0E0;" points="395.1,478.187 391.686,469.84 458.465,469.84 454.481,478.187 					"/>
				</g>
			</g>
		</g>
		<g>
			<g>
				<g>
					<g>
						<path style="fill:#F5F5F5;" d="M454.656,437.536c0.013,0.01-0.076,0.146-0.26,0.399c-0.221,0.294-0.495,0.657-0.833,1.105
							c-0.792,1.013-1.88,2.406-3.249,4.157l-0.144,0.185l-0.14-0.193c-2.042-2.824-4.77-6.597-7.981-11.039h0.459
							c-2.374,3.362-5.018,7.106-7.858,11.126l-0.246,0.349l-0.276-0.328c-2.9-3.45-6.049-7.198-9.319-11.088l0.537-0.007
							c-0.162,0.203-0.337,0.424-0.513,0.644c-2.89,3.623-5.687,7.13-8.333,10.447l-0.278,0.348l-0.256-0.363
							c-2.829-4.003-5.472-7.743-7.862-11.124l0.457,0.022c-3.874,4.414-7.16,8.158-9.682,11.031l-0.172,0.196l-0.131-0.22
							c-1.276-2.144-2.294-3.854-3.032-5.093c-0.317-0.553-0.573-1-0.778-1.356c-0.171-0.31-0.252-0.474-0.238-0.484
							c0.015-0.009,0.125,0.137,0.325,0.43c0.226,0.343,0.51,0.773,0.861,1.305c0.774,1.217,1.843,2.895,3.182,5l-0.303-0.025
							c2.482-2.908,5.715-6.698,9.527-11.166l0.24-0.282l0.217,0.304c2.411,3.366,5.078,7.089,7.932,11.073l-0.534-0.014
							c2.639-3.321,5.43-6.833,8.313-10.462c0.175-0.221,0.351-0.441,0.513-0.644l0.265-0.333l0.272,0.326
							c3.261,3.898,6.401,7.652,9.293,11.109l-0.522,0.021c2.868-4,5.538-7.726,7.936-11.07l0.233-0.324l0.227,0.324
							c3.143,4.49,5.814,8.304,7.813,11.158l-0.284-0.008c1.424-1.707,2.556-3.064,3.379-4.052c0.367-0.425,0.665-0.769,0.905-1.048
							C454.53,437.641,454.644,437.526,454.656,437.536z"/>
					</g>
				</g>
			</g>
		</g>
		<g>
			<g>
				<g>
					<g>
						<path style="fill:#F5F5F5;" d="M456.468,423.063c0,0.192-13.973,0.347-31.206,0.347c-17.239,0-31.209-0.155-31.209-0.347
							c0-0.192,13.97-0.347,31.209-0.347C442.495,422.715,456.468,422.871,456.468,423.063z"/>
					</g>
				</g>
			</g>
		</g>
		<g>
			<g>
				<g>
					<g>
						<path style="fill:#F5F5F5;" d="M459.285,470.307c0,0.192-15.186,0.347-33.915,0.347c-18.736,0-33.918-0.155-33.918-0.347
							c0-0.191,15.183-0.347,33.918-0.347C444.099,469.961,459.285,470.116,459.285,470.307z"/>
					</g>
				</g>
			</g>
		</g>
	</g>
	<g>
		<g>
			<g>
				<path style="fill:#E0E0E0;" d="M150.155,181.804c0,0,0.317-0.217,1.024-0.448c0.7-0.204,1.854-0.402,3.258,0.041
					c1.369,0.423,3,1.642,3.62,3.737c0.29,1.029,0.318,2.243-0.111,3.413c-0.411,1.166-1.266,2.281-2.49,2.981l0.052-0.175
					c4.812,9.159,11.757,22.378,20.099,38.254c4.164,7.95,8.677,16.565,13.446,25.67c0.58,1.133,1.258,2.266,1.655,3.548
					c0.412,1.263,0.627,2.6,0.615,3.947c-0.055,2.692-1.011,5.392-2.753,7.533c-1.761,2.113-4.255,3.666-7.019,4.206
					c-2.756,0.549-5.721,0.11-8.231-1.262c-1.742-0.977-3.25-2.358-4.329-4.014c-0.523-0.849-0.96-1.704-1.402-2.556
					c-0.445-0.851-0.888-1.7-1.33-2.546c-1.767-3.384-3.51-6.721-5.225-10.004c-3.427-6.567-6.742-12.919-9.912-18.993
					c-6.329-12.149-12.078-23.185-16.989-32.611l0.255,0.085c-1.46,0.701-3.167,0.712-4.582,0.128
					c-1.427-0.571-2.546-1.731-3.085-3.076c-0.557-1.343-0.546-2.848-0.063-4.12c0.478-1.275,1.4-2.335,2.522-2.939
					c4.398-2.282,8.192-4.251,11.3-5.863c3.094-1.592,5.505-2.832,7.159-3.683c0.81-0.41,1.432-0.724,1.87-0.946
					C149.931,181.899,150.155,181.804,150.155,181.804s-0.206,0.129-0.62,0.356c-0.432,0.233-1.046,0.564-1.844,0.995
					c-1.643,0.872-4.038,2.143-7.111,3.775c-3.094,1.634-6.87,3.628-11.249,5.941c-1.059,0.577-1.92,1.583-2.365,2.786
					c-0.448,1.201-0.451,2.614,0.077,3.872c0.513,1.261,1.564,2.34,2.901,2.868c1.327,0.54,2.918,0.523,4.276-0.136l0.168-0.081
					l0.087,0.166c4.936,9.413,10.714,20.434,17.076,32.566c3.177,6.07,6.5,12.418,9.935,18.981
					c1.717,3.282,3.462,6.619,5.231,10.001c0.442,0.846,0.886,1.694,1.331,2.546c0.443,0.854,0.885,1.714,1.378,2.513
					c1.033,1.586,2.475,2.906,4.143,3.841c2.403,1.313,5.242,1.734,7.879,1.209c2.645-0.516,5.036-2.004,6.722-4.024
					c1.668-2.048,2.586-4.635,2.642-7.214c0.012-1.291-0.193-2.571-0.586-3.781c-0.371-1.214-1.032-2.323-1.619-3.473
					c-4.752-9.113-9.249-17.736-13.399-25.694c-8.273-15.912-15.16-29.161-19.933-38.341l-0.059-0.113l0.111-0.062
					c1.172-0.659,1.996-1.717,2.4-2.831c0.421-1.118,0.404-2.284,0.135-3.279c-0.577-2.026-2.139-3.228-3.468-3.661
					c-1.361-0.453-2.497-0.284-3.195-0.104C150.494,181.63,150.166,181.829,150.155,181.804z"/>
			</g>
		</g>
		<g>
			<path style="fill:#E0E0E0;" d="M183.996,269.442l-1.961,1.025c-3.786,1.979-8.459,0.514-10.437-3.272l-28.853-55.207l15.67-8.19
				l28.853,55.207C189.247,262.791,187.782,267.464,183.996,269.442z"/>
		</g>
		<g>
			<g>
				<path style="fill:#E0E0E0;" d="M155.391,191.415c0.067,0.127-4.594,2.704-10.41,5.755c-5.817,3.052-10.586,5.422-10.653,5.294
					c-0.067-0.127,4.593-2.704,10.411-5.755C150.554,193.658,155.324,191.287,155.391,191.415z"/>
			</g>
		</g>
	</g>
	<g>
		<g>
			<g>
				<g>
					<g>
						<path style="fill:#F5F5F5;" d="M332.098,84.311c-6.338,18.781-16.472,49.139-21.123,63.084
							c-1.372,4.113,0.845,8.556,4.955,9.939l51.309,17.26c4.117,1.385,8.577-0.83,9.962-4.947l21.026-62.504
							c3.075-9.14-1.842-19.042-10.982-22.117l0,0l3.092-9.193l-33.6-11.303l-2.924,8.692l-0.125-0.038
							C344.666,70.459,335.112,75.382,332.098,84.311z"/>
					</g>
				</g>
			</g>
		</g>
		<g>
			<g>
				<g>
					<g>
						<polygon style="fill:#E0E0E0;" points="356.344,65.699 354.937,69.88 388.136,82.375 389.944,77.002 						"/>
					</g>
				</g>
			</g>
		</g>
		<g>
			<g>
				<g>
					<g>
						<path style="fill:#EBEBEB;" d="M391.208,80.418l-37.794-12.714c-1.011-0.34-1.555-1.435-1.215-2.446l4.041-12.014
							c0.527-1.566,2.223-2.409,3.789-1.882L395.814,63.4c1.566,0.527,2.408,2.223,1.882,3.789l-4.042,12.014
							C393.314,80.214,392.219,80.758,391.208,80.418z"/>
					</g>
				</g>
			</g>
		</g>
		<g>
			<g>
				<g>
					<g>
						<g>
							<path style="fill:#E0E0E0;" d="M356.867,68.936c-0.244-0.082,0.809-3.866,2.352-8.45c1.543-4.586,2.991-8.236,3.234-8.154
								c0.243,0.082-0.809,3.865-2.352,8.451C358.559,65.367,357.111,69.018,356.867,68.936z"/>
						</g>
					</g>
				</g>
			</g>
		</g>
		<g>
			<g>
				<g>
					<g>
						<g>
							<path style="fill:#E0E0E0;" d="M361.295,70.426c-0.244-0.082,0.809-3.866,2.352-8.45c1.543-4.586,2.991-8.236,3.234-8.154
								c0.243,0.082-0.809,3.865-2.352,8.451C362.987,66.857,361.539,70.508,361.295,70.426z"/>
						</g>
					</g>
				</g>
			</g>
		</g>
		<g>
			<g>
				<g>
					<g>
						<g>
							<path style="fill:#E0E0E0;" d="M365.723,71.915c-0.244-0.082,0.809-3.866,2.352-8.45c1.543-4.586,2.99-8.236,3.234-8.154
								c0.243,0.082-0.809,3.865-2.352,8.451C367.415,68.346,365.966,71.997,365.723,71.915z"/>
						</g>
					</g>
				</g>
			</g>
		</g>
		<g>
			<g>
				<g>
					<g>
						<g>
							<path style="fill:#E0E0E0;" d="M370.151,73.405c-0.244-0.082,0.81-3.866,2.352-8.45c1.543-4.586,2.991-8.236,3.234-8.154
								c0.243,0.082-0.809,3.865-2.352,8.451C371.843,69.836,370.395,73.487,370.151,73.405z"/>
						</g>
					</g>
				</g>
			</g>
		</g>
		<g>
			<g>
				<g>
					<g>
						<g>
							<path style="fill:#E0E0E0;" d="M374.579,74.894c-0.244-0.082,0.809-3.866,2.352-8.45c1.543-4.586,2.991-8.236,3.234-8.154
								c0.244,0.082-0.809,3.865-2.352,8.451C376.27,71.325,374.822,74.976,374.579,74.894z"/>
						</g>
					</g>
				</g>
			</g>
		</g>
		<g>
			<g>
				<g>
					<g>
						<g>
							<path style="fill:#E0E0E0;" d="M379.007,76.384c-0.244-0.082,0.809-3.866,2.352-8.45c1.543-4.586,2.99-8.236,3.234-8.154
								c0.244,0.082-0.809,3.865-2.352,8.451C380.698,72.815,379.25,76.466,379.007,76.384z"/>
						</g>
					</g>
				</g>
			</g>
		</g>
		<g>
			<g>
				<g>
					<g>
						<g>
							<path style="fill:#E0E0E0;" d="M383.435,77.873c-0.244-0.082,0.809-3.866,2.352-8.45c1.543-4.586,2.991-8.236,3.234-8.154
								c0.244,0.082-0.809,3.865-2.352,8.451C385.126,74.304,383.678,77.955,383.435,77.873z"/>
						</g>
					</g>
				</g>
			</g>
		</g>
		<g>
			<g>
				<g>
					<g>
						<g>
							<path style="fill:#E0E0E0;" d="M387.863,79.363c-0.244-0.082,0.809-3.866,2.351-8.45c1.543-4.586,2.991-8.236,3.234-8.154
								c0.243,0.082-0.809,3.865-2.352,8.451C389.554,75.794,388.106,79.445,387.863,79.363z"/>
						</g>
					</g>
				</g>
			</g>
		</g>
		<g>
			<g>
				<g>
					<g>
						<g>
							<path style="fill:#EBEBEB;" d="M374.465,144.088l-45.333-15.25c-0.776-0.261-1.194-1.102-0.932-1.878l9.767-29.035
								c0.261-0.776,1.102-1.194,1.878-0.933l45.333,15.25c0.776,0.261,1.193,1.102,0.932,1.878l-9.767,29.035
								C376.082,143.932,375.241,144.349,374.465,144.088z"/>
						</g>
					</g>
				</g>
			</g>
			<g>
				<g>
					<g>
						<g>
							<g>
								<path style="fill:#E0E0E0;" d="M373.38,141.29c-0.008-0.017,0.04-0.202,0.141-0.545c0.123-0.401,0.274-0.893,0.46-1.497
									c0.438-1.374,1.036-3.252,1.79-5.618c1.591-4.878,3.832-11.748,6.557-20.101l0.233,0.468
									c-11.626-3.883-26.304-8.786-42.227-14.104c-0.131,0.062,1.112-0.555,0.585-0.29l-0.003,0.007l-0.005,0.014l-0.01,0.029
									l-0.019,0.058l-0.039,0.115l-0.078,0.23l-0.155,0.46l-0.309,0.917l-0.615,1.826c-0.409,1.213-0.815,2.418-1.217,3.614
									c-0.807,2.391-1.602,4.745-2.382,7.058c-1.564,4.62-3.071,9.07-4.504,13.3l-0.269-0.541
									c12.28,4.221,22.734,7.814,30.214,10.386c3.661,1.283,6.59,2.309,8.694,3.046c0.96,0.345,1.73,0.623,2.331,0.839
									C373.087,141.156,373.369,141.268,373.38,141.29c0.011,0.021-0.25-0.049-0.764-0.204c-0.588-0.184-1.342-0.419-2.282-0.713
									c-2.1-0.677-5.023-1.619-8.676-2.797c-7.579-2.495-18.172-5.981-30.614-10.077l-0.405-0.133l0.136-0.408
									c1.415-4.236,2.905-8.692,4.451-13.318c0.776-2.314,1.566-4.67,2.368-7.062c0.402-1.196,0.806-2.401,1.214-3.615
									l0.614-1.826l0.308-0.918l0.155-0.46l0.078-0.23L340,99.414l0.019-0.058l0.01-0.029l0.005-0.014l0.002-0.007
									c-0.526,0.258,0.719-0.361,0.594-0.295c15.9,5.387,30.557,10.352,42.166,14.285l0.354,0.12l-0.121,0.349
									c-2.908,8.392-5.301,15.295-6.999,20.195c-0.818,2.307-1.467,4.139-1.942,5.479c-0.208,0.567-0.378,1.029-0.516,1.405
									C373.453,141.155,373.388,141.307,373.38,141.29z"/>
							</g>
						</g>
					</g>
				</g>
			</g>
			<g>
				<g>
					<g>
						<g>
							<g>
								<path style="fill:#E0E0E0;" d="M373.139,120.396c-0.082,0.244-6.569-1.718-14.486-4.382
									c-7.921-2.664-14.273-5.021-14.191-5.265c0.082-0.243,6.567,1.718,14.488,4.383
									C366.867,117.796,373.221,120.153,373.139,120.396z"/>
							</g>
						</g>
					</g>
				</g>
			</g>
			<g>
				<g>
					<g>
						<g>
							<g>
								<path style="fill:#E0E0E0;" d="M371.499,125.271c-0.082,0.244-6.569-1.719-14.486-4.382
									c-7.921-2.664-14.273-5.021-14.191-5.265c0.082-0.244,6.567,1.718,14.488,4.382
									C365.227,122.671,371.581,125.028,371.499,125.271z"/>
							</g>
						</g>
					</g>
				</g>
			</g>
			<g>
				<g>
					<g>
						<g>
							<g>
								<path style="fill:#E0E0E0;" d="M369.924,129.955c-0.082,0.244-6.569-1.718-14.486-4.382
									c-7.921-2.664-14.273-5.021-14.191-5.265c0.082-0.243,6.567,1.718,14.488,4.383
									C363.652,127.355,370.005,129.712,369.924,129.955z"/>
							</g>
						</g>
					</g>
				</g>
			</g>
		</g>
		<g>
			<g>
				<g>
					<g>
						<g>
							<path style="fill:#E0E0E0;" d="M385.423,84.09c-0.082,0.244-7.155-1.916-15.797-4.823
								c-8.645-2.908-15.584-5.462-15.502-5.706c0.082-0.244,7.154,1.916,15.799,4.824C378.564,81.292,385.504,83.847,385.423,84.09
								z"/>
						</g>
					</g>
				</g>
			</g>
		</g>
		<g>
			<g>
				<g>
					<g>
						<g>
							<path style="fill:#FFFFFF;" d="M314.963,144.706c-0.061-0.021,0.238-1.092,0.832-3.013c0.66-2.061,1.536-4.794,2.597-8.104
								c2.231-6.83,5.374-16.245,8.9-26.626c1.774-5.18,3.465-10.115,5.009-14.625c1.533-4.492,3.378-8.532,5.928-11.208
								c2.514-2.692,5.372-3.944,7.373-4.286c1.007-0.192,1.807-0.158,2.338-0.136c0.532,0.064,0.806,0.115,0.803,0.147
								c-0.002,0.099-1.13-0.101-3.065,0.344c-1.91,0.438-4.606,1.733-6.962,4.376c-2.386,2.624-4.123,6.561-5.603,11.044
								c-1.523,4.516-3.189,9.457-4.939,14.645c-3.526,10.38-6.767,19.761-9.158,26.537c-1.175,3.271-2.145,5.973-2.877,8.01
								C315.439,143.695,315.023,144.727,314.963,144.706z"/>
						</g>
					</g>
				</g>
			</g>
		</g>
		<g>
			<g>
				<g>
					<g>
						<g>
							<path style="fill:#FFFFFF;" d="M373.158,173.926c-0.043,0.048-0.777-0.486-2.064-1.491c-0.637-0.51-1.423-1.125-2.376-1.786
								c-0.946-0.669-1.987-1.48-3.223-2.253c-2.408-1.639-5.399-3.404-8.815-5.172c-3.441-1.719-7.323-3.411-11.526-4.846
								c-4.216-1.397-8.333-2.394-12.114-3.104c-3.791-0.656-7.24-1.057-10.15-1.206c-1.452-0.131-2.771-0.114-3.929-0.152
								c-1.159-0.048-2.156-0.033-2.972-0.012c-1.632,0.023-2.54,0.005-2.545-0.059c-0.005-0.064,0.894-0.169,2.53-0.303
								c0.818-0.077,1.819-0.145,2.985-0.146c1.165-0.011,2.495-0.074,3.962,0.015c2.937,0.066,6.428,0.402,10.267,1.019
								c3.829,0.671,8,1.654,12.264,3.067c4.249,1.45,8.167,3.187,11.622,4.965c3.431,1.828,6.415,3.67,8.795,5.392
								c1.222,0.815,2.244,1.669,3.166,2.382c0.928,0.706,1.686,1.365,2.29,1.921C372.547,173.251,373.201,173.878,373.158,173.926z
								"/>
						</g>
					</g>
				</g>
			</g>
		</g>
	</g>
	<g>
		<path style="fill:#EBEBEB;" d="M400.59,187.184c-2.409-3.809-5.691-8.394-7.574-11.817c-3.111,5.428-5.652,11.182-7.568,17.137
			c-1.077,3.348-1.965,6.833-1.741,10.343c0.223,3.51,1.706,7.085,4.572,9.125c3.672,2.613,9.875,2.389,13.418-0.397
			c3.543-2.786,4.893-7.039,4.833-11.546C406.471,195.523,402.999,190.994,400.59,187.184z"/>
	</g>
	<g>
		<path style="fill:#EBEBEB;" d="M418.006,157.262c-1.775-2.807-4.193-6.185-5.581-8.708c-2.293,3.999-4.165,8.239-5.577,12.628
			c-0.794,2.467-1.448,5.035-1.283,7.621c0.164,2.587,1.257,5.221,3.369,6.724c2.706,1.925,7.277,1.76,9.887-0.292
			c2.611-2.053,3.605-5.187,3.561-8.507C422.34,163.407,419.781,160.069,418.006,157.262z"/>
	</g>
	<g>
		<g>
			<g>
				<g>
					<g>
						<polygon style="fill:#F5F5F5;" points="58.618,424.24 66.816,478.108 114.438,478.108 125.491,425.019 						"/>
					</g>
				</g>
			</g>
			<g>
				<g>
					<g>
						<g>
							<g>
								<path style="fill:#FAFAFA;" d="M118.832,458.764c0,0.154-12.203,0.28-27.252,0.28c-15.055,0-27.255-0.125-27.255-0.28
									c0-0.154,12.2-0.279,27.255-0.279C106.629,458.484,118.832,458.61,118.832,458.764z"/>
							</g>
						</g>
					</g>
				</g>
				<g>
					<g>
						<g>
							<g>
								<path style="fill:#FAFAFA;" d="M119.017,456.115c0,0.155-12.285,0.28-27.437,0.28c-15.157,0-27.44-0.125-27.44-0.28
									c0-0.154,12.283-0.279,27.44-0.279C106.732,455.835,119.017,455.961,119.017,456.115z"/>
							</g>
						</g>
					</g>
				</g>
				<g>
					<g>
						<g>
							<g>
								<path style="fill:#FAFAFA;" d="M118.923,453.123c0,0.154-12.286,0.279-27.437,0.279c-15.157,0-27.44-0.125-27.44-0.279
									c0-0.154,12.283-0.279,27.44-0.279C106.637,452.843,118.923,452.968,118.923,453.123z"/>
							</g>
						</g>
					</g>
				</g>
				<g>
					<g>
						<g>
							<g>
								<path style="fill:#FAFAFA;" d="M72.286,475.035c-0.152,0.026-0.806-3.011-1.461-6.782c-0.655-3.773-1.062-6.852-0.91-6.878
									c0.152-0.026,0.806,3.01,1.461,6.783C72.03,471.929,72.438,475.008,72.286,475.035z"/>
							</g>
						</g>
					</g>
				</g>
				<g>
					<g>
						<g>
							<g>
								<path style="fill:#FAFAFA;" d="M75.525,474.462c-0.158,0.003-0.34-2.964-0.59-6.617c-0.246-3.655-0.468-6.619-0.311-6.637
									c0.15-0.018,0.621,2.929,0.868,6.6C75.744,471.476,75.676,474.46,75.525,474.462z"/>
							</g>
						</g>
					</g>
				</g>
				<g>
					<g>
						<g>
							<g>
								<path style="fill:#FAFAFA;" d="M81.43,474.46c-0.148,0.026-0.798-2.999-1.239-6.785c-0.446-3.787-0.512-6.88-0.363-6.889
									c0.158-0.01,0.473,3.054,0.918,6.823C81.184,471.379,81.586,474.434,81.43,474.46z"/>
							</g>
						</g>
					</g>
				</g>
				<g>
					<g>
						<g>
							<g>
								<path style="fill:#FAFAFA;" d="M85.575,474.744c-0.15,0.013-0.538-3.069-0.66-6.894c-0.127-3.826,0.061-6.926,0.211-6.923
									c0.158,0.003,0.221,3.095,0.348,6.905C85.595,471.641,85.733,474.731,85.575,474.744z"/>
							</g>
						</g>
					</g>
				</g>
				<g>
					<g>
						<g>
							<g>
								<path style="fill:#FAFAFA;" d="M92.912,474.463c-0.154,0.005-0.378-2.925-0.501-6.543c-0.123-3.62-0.097-6.558,0.058-6.563
									c0.154-0.005,0.379,2.924,0.501,6.544C93.092,471.519,93.066,474.457,92.912,474.463z"/>
							</g>
						</g>
					</g>
				</g>
				<g>
					<g>
						<g>
							<g>
								<path style="fill:#FAFAFA;" d="M98.272,474.746c-0.154-0.001-0.255-3.032-0.225-6.769c0.031-3.738,0.18-6.767,0.335-6.765
									c0.154,0.001,0.255,3.032,0.224,6.77C98.576,471.718,98.426,474.747,98.272,474.746z"/>
							</g>
						</g>
					</g>
				</g>
				<g>
					<g>
						<g>
							<g>
								<path style="fill:#FAFAFA;" d="M103.296,474.027c-0.154-0.015,0.028-3.182,0.406-7.074c0.378-3.893,0.809-7.036,0.962-7.021
									c0.154,0.015-0.028,3.182-0.406,7.075C103.881,470.898,103.45,474.042,103.296,474.027z"/>
							</g>
						</g>
					</g>
				</g>
				<g>
					<g>
						<g>
							<g>
								<path style="fill:#FAFAFA;" d="M109.776,473.321c-0.148-0.018,0.084-2.736,0.801-6.016c0.711-3.283,1.629-5.85,1.771-5.806
									c0.153,0.046-0.52,2.667-1.224,5.924C110.411,470.678,109.934,473.343,109.776,473.321z"/>
							</g>
						</g>
					</g>
				</g>
			</g>
			<g>
				<g>
					<g>
						<path style="fill:#F5F5F5;" d="M53.153,413.573v10.08c0,2.191,1.777,3.968,3.968,3.968h68.962
							c2.192,0,3.968-1.777,3.968-3.968v-10.08H53.153z"/>
					</g>
				</g>
			</g>
			<g>
				<g>
					<g>
						<polygon style="fill:#E0E0E0;" points="59.133,427.621 59.705,430.83 123.337,435.365 124.949,427.621 						"/>
					</g>
				</g>
			</g>
		</g>
		<g>
			<g>
				<g>
					<g>
						<path style="fill:#EBEBEB;" d="M63.539,413.624c0,0-26.811-30.907-23.832-32.024c2.979-1.117,26.811,16.012,26.811,16.012
							s-20.48-45.802-16.384-49.153c4.096-3.351,25.693,40.589,25.693,40.589s-3.351-64.048,0-64.792
							c3.352-0.745,15.64,64.048,15.64,64.048s18.246-59.207,23.459-59.207c5.213,0-5.585,56.973-5.585,56.973
							s21.598-36.492,24.949-31.652c3.352,4.841-15.267,44.312-15.267,44.312s27.183-22.715,28.3-19.736
							c1.117,2.979-29.418,34.63-29.418,34.63H63.539z"/>
					</g>
				</g>
			</g>
			<g>
				<g>
					<g>
						<g>
							<path style="fill:#E0E0E0;" d="M59.798,367.077c0.185-0.083,4.941,10.112,10.621,22.769
								c5.682,12.661,10.136,22.99,9.951,23.073c-0.185,0.083-4.94-10.11-10.622-22.771
								C64.068,377.491,59.612,367.16,59.798,367.077z"/>
						</g>
					</g>
				</g>
			</g>
			<g>
				<g>
					<g>
						<g>
							<path style="fill:#E0E0E0;" d="M81.457,372.773c0.203-0.014,0.993,8.972,1.765,20.069c0.772,11.1,1.234,20.108,1.031,20.122
								c-0.202,0.014-0.993-8.97-1.765-20.071C81.716,381.797,81.254,372.788,81.457,372.773z"/>
						</g>
					</g>
				</g>
			</g>
			<g>
				<g>
					<g>
						<g>
							<path style="fill:#E0E0E0;" d="M111.333,344.09c0.024,0.008-0.031,0.258-0.158,0.726c-0.158,0.546-0.352,1.219-0.588,2.037
								c-0.561,1.866-1.32,4.39-2.242,7.461c-1.891,6.3-4.432,15.023-7.021,24.717c-2.585,9.699-4.728,18.529-6.228,24.933
								c-0.73,3.123-1.329,5.689-1.773,7.586c-0.202,0.826-0.369,1.507-0.504,2.059c-0.123,0.469-0.2,0.713-0.225,0.708
								c-0.025-0.005,0.003-0.259,0.08-0.738c0.099-0.56,0.221-1.25,0.369-2.088c0.333-1.811,0.859-4.422,1.545-7.641
								c1.371-6.438,3.436-15.299,6.024-25.009c2.592-9.705,5.216-18.416,7.235-24.682c1.009-3.133,1.853-5.659,2.467-7.395
								c0.289-0.801,0.527-1.459,0.72-1.994C111.206,344.316,111.309,344.082,111.333,344.09z"/>
						</g>
					</g>
				</g>
			</g>
			<g>
				<g>
					<g>
						<g>
							<path style="fill:#E0E0E0;" d="M124.252,377.104c0.167,0.116-5.067,7.919-11.688,17.426
								c-6.623,9.511-12.126,17.124-12.293,17.007c-0.167-0.116,5.066-7.918,11.689-17.428
								C118.581,384.603,124.085,376.988,124.252,377.104z"/>
						</g>
					</g>
				</g>
			</g>
			<g>
				<g>
					<g>
						<g>
							<path style="fill:#E0E0E0;" d="M72.587,412.968c-0.062,0.075-0.971-0.548-2.346-1.674c-1.375-1.126-3.205-2.769-5.101-4.711
								c-1.894-1.944-3.491-3.815-4.582-5.219c-1.092-1.403-1.691-2.327-1.615-2.387c0.17-0.133,2.957,3.242,6.723,7.093
								C69.42,409.93,72.724,412.801,72.587,412.968z"/>
						</g>
					</g>
				</g>
			</g>
			<g>
				<g>
					<g>
						<g>
							<path style="fill:#E0E0E0;" d="M88.871,400.69c0.202-0.018,0.628,2.836,0.951,6.375c0.323,3.54,0.42,6.424,0.218,6.442
								c-0.203,0.018-0.628-2.835-0.951-6.375C88.766,403.593,88.668,400.708,88.871,400.69z"/>
						</g>
					</g>
				</g>
			</g>
		</g>
	</g>
</g>
<g id="Background_Simple" style="display:none;">
	<g style="display:inline;">
		<path style="fill:#EBEBEB;" d="M432.769,110.229l-2.209-3.64c-18.62-30.684-52.285-49.18-87.779-46.936
			c-4.563,0.289-9.106,0.906-13.588,1.866c-32.271,6.908-60.351,31.312-71.99,62.566c-6.845,18.381-8.758,39.545-21.747,54.135
			c-16.906,18.988-45.607,19.584-70.841,18.798s-53.955-0.116-70.778,18.947C83.3,227.904,79.952,244.882,80.801,260.87
			c2.249,42.331,31.746,80.181,69.258,98.994s81.679,20.498,122.734,12.222c57.513-11.594,112.208-43.432,145.083-92.608
			C450.752,230.302,459.073,163.305,432.769,110.229z"/>
	</g>
</g>
<g id="Speech_Bubble">
	<g>
		<g>
			<g>
				<g>
					<path style="fill:#FAFAFA;" d="M184.456,165.121l-13.895-23.75c5.878-9.83,9.198-21.354,9.035-33.646
						c-0.468-35.35-29.504-63.628-64.854-63.16c-35.35,0.468-63.628,29.504-63.16,64.854c0.468,35.35,29.504,63.627,64.854,63.16
						c14.761-0.195,28.277-5.385,38.994-13.922l-0.021,0.029L184.456,165.121z"/>
				</g>
				<g>
					<g>
						<path style="fill:#263238;" d="M184.456,165.121c-0.916-0.199-10.42-2.261-29.075-6.309c-0.07-0.015-0.114-0.084-0.099-0.154
							c0.004-0.018,0.012-0.036,0.023-0.05l0.021-0.029l0.185,0.179c-3.614,2.87-7.949,5.709-13.057,8.092
							c-5.114,2.344-10.982,4.279-17.474,5.226c-3.242,0.473-6.63,0.726-10.119,0.678c-3.488-0.033-7.085-0.32-10.717-0.994
							c-7.262-1.309-14.709-3.954-21.672-8.15c-6.96-4.181-13.422-9.905-18.626-16.969c-5.202-7.05-9.152-15.442-11.092-24.571
							c-1.937-9.117-1.927-18.922,0.32-28.452c2.285-9.507,6.805-18.726,13.391-26.465c1.649-2.003,3.474-3.836,5.326-5.618
							c1.909-1.72,3.849-3.397,5.926-4.875c4.108-3.014,8.535-5.512,13.152-7.413c4.61-1.914,9.387-3.287,14.2-4.082
							c4.816-0.778,9.655-1.005,14.395-0.722c9.484,0.567,18.557,3.211,26.399,7.453c7.861,4.221,14.524,9.921,19.689,16.327
							c5.18,6.408,8.86,13.51,11.155,20.598c2.255,7.109,3.181,14.182,3.062,20.755c-0.098,6.581-1.21,12.659-2.88,18.003
							c-1.673,5.352-3.904,9.967-6.22,13.856l0.001-0.127C179.551,156.649,184.006,164.344,184.456,165.121
							c-0.456-0.772-4.982-8.427-14.003-23.687c-0.024-0.04-0.021-0.09,0.001-0.127c2.29-3.885,4.493-8.488,6.141-13.819
							c1.644-5.324,2.732-11.373,2.813-17.917c0.101-6.537-0.835-13.565-3.089-20.624c-2.295-7.038-5.961-14.086-11.115-20.443
							c-5.138-6.354-11.761-12.004-19.568-16.186c-7.788-4.202-16.793-6.817-26.203-7.374c-4.704-0.278-9.506-0.049-14.282,0.725
							c-4.774,0.791-9.512,2.154-14.084,4.055c-4.579,1.887-8.97,4.366-13.044,7.356c-2.06,1.466-3.984,3.13-5.878,4.836
							c-1.837,1.768-3.647,3.587-5.282,5.573c-6.534,7.677-11.017,16.821-13.287,26.249c-2.232,9.452-2.247,19.181-0.331,28.228
							c1.92,9.059,5.831,17.388,10.987,24.392c5.159,7.017,11.567,12.708,18.472,16.869c6.909,4.177,14.301,6.816,21.513,8.13
							c3.607,0.677,7.181,0.969,10.648,1.009c3.469,0.055,6.837-0.189,10.062-0.651c6.458-0.925,12.299-2.834,17.395-5.15
							c5.09-2.356,9.415-5.165,13.027-8.009c0.056-0.045,0.138-0.036,0.182,0.02c0.037,0.047,0.036,0.113,0.003,0.159l-0.021,0.029
							l-0.076-0.204C174.056,162.769,183.542,164.914,184.456,165.121z"/>
					</g>
				</g>
			</g>
		</g>
		<g>
			<g>
				<path style="fill:#FF725E;" d="M137.307,138.937l-43.419-0.358c-2.698-0.022-4.866-2.227-4.844-4.925l0.417-50.564
					c0.022-2.698,2.227-4.866,4.925-4.844l43.419,0.358c2.698,0.022,4.866,2.227,4.844,4.925l-0.417,50.564
					C142.21,136.79,140.005,138.959,137.307,138.937z"/>
			</g>
			<g>
				<g>
					<path style="fill:#FFFFFF;" d="M126.458,109.935l-19.92-0.164c-4.729-0.039-8.531-3.904-8.492-8.634l0.028-3.446
						c0.039-4.729,3.904-8.531,8.634-8.492l19.92,0.164c4.729,0.039,8.531,3.904,8.492,8.633l-0.028,3.446
						C135.052,106.171,131.187,109.973,126.458,109.935z"/>
				</g>
				<g>
					<g>
						<path style="fill:#263238;" d="M126.458,109.935c-0.027-0.105,1.481,0.132,3.769-0.967c1.121-0.55,2.382-1.521,3.346-3.017
							c0.487-0.741,0.874-1.622,1.099-2.6c0.243-0.978,0.237-2.039,0.234-3.184c-0.019-1.135,0.074-2.342-0.109-3.529
							c-0.192-1.191-0.638-2.403-1.4-3.461c-1.474-2.145-4.164-3.665-7.128-3.562c-6.018-0.043-12.625-0.09-19.562-0.139
							c-3.4-0.075-6.532,2.145-7.72,5.09c-0.309,0.731-0.488,1.501-0.595,2.271c-0.064,0.766-0.059,1.57-0.067,2.356
							c-0.01,1.585-0.111,3.106,0.356,4.5c0.87,2.802,3.194,4.884,5.708,5.54c1.251,0.372,2.532,0.314,3.781,0.338
							c1.24,0.016,2.431,0.032,3.569,0.047c4.512,0.074,8.179,0.134,10.77,0.177c1.236,0.032,2.213,0.058,2.928,0.076
							c0.307,0.014,0.557,0.025,0.761,0.034C126.37,109.915,126.458,109.925,126.458,109.935c0,0.009-0.088,0.018-0.26,0.026
							c-0.204,0.006-0.455,0.013-0.762,0.021c-0.715,0.007-1.693,0.016-2.929,0.028c-2.592,0-6.259,0-10.772-0.001
							c-1.138-0.004-2.329-0.008-3.569-0.012c-1.224-0.014-2.565,0.061-3.899-0.323c-2.658-0.675-5.135-2.858-6.072-5.83
							c-0.504-1.489-0.402-3.109-0.398-4.657c0.007-0.787-0.004-1.575,0.063-2.411c0.11-0.82,0.3-1.641,0.627-2.421
							c0.651-1.559,1.774-2.946,3.219-3.927c0.729-0.479,1.527-0.861,2.371-1.13c0.852-0.244,1.739-0.368,2.635-0.376
							c6.937,0.065,13.544,0.127,19.561,0.183c3.103-0.095,5.975,1.537,7.501,3.81c0.795,1.122,1.255,2.404,1.445,3.658
							c0.181,1.273,0.07,2.463,0.078,3.597c-0.01,1.125-0.015,2.248-0.283,3.263c-0.248,1.015-0.665,1.926-1.182,2.686
							c-1.025,1.534-2.347,2.507-3.511,3.042c-1.17,0.544-2.17,0.715-2.839,0.772c-0.335,0.034-0.594,0.015-0.765,0.02
							C126.546,109.95,126.458,109.944,126.458,109.935z"/>
					</g>
				</g>
			</g>
			<g style="opacity:0.4;">
				<g>
					<path d="M107.038,78.351c0.78,4.332,5.068,8.441,9.464,8.216c4.396-0.225,8.279-3.677,8.613-8.067"/>
				</g>
			</g>
			<g>
				<path style="fill:#455A64;" d="M119.329,85.799c-2.054,1.05-4.098,1.034-6.134-0.051l0.144-17.464
					c0.014-1.694,1.399-3.056,3.092-3.042l0,0c1.694,0.014,3.056,1.398,3.042,3.092L119.329,85.799z"/>
			</g>
			<g>
				
					<rect x="115.505" y="68.142" transform="matrix(1 0.0082 -0.0082 1 0.5929 -0.9521)" style="fill:#FFFFFF;" width="1.793" height="7.367"/>
			</g>
			<g>
				<g>
					<path style="fill:#263238;" d="M115.258,124.341c-0.063,0.003-0.024-0.716-0.34-1.938c-0.312-1.198-1.11-2.956-2.9-4.318
						c-0.887-0.665-2.003-1.232-3.289-1.463c-1.278-0.223-2.719-0.188-4.092,0.326c-1.373,0.484-2.686,1.406-3.623,2.687
						c-0.964,1.264-1.513,2.891-1.543,4.573c0.002,1.683,0.524,3.32,1.467,4.6c0.916,1.297,2.214,2.241,3.579,2.747
						c1.364,0.537,2.805,0.595,4.087,0.394c1.29-0.21,2.415-0.758,3.313-1.408c1.812-1.333,2.638-3.077,2.97-4.27
						C115.222,125.056,115.194,124.337,115.258,124.341c0.019,0,0.027,0.177,0.025,0.516c0.005,0.338-0.042,0.841-0.189,1.47
						c-0.277,1.241-1.073,3.087-2.944,4.528c-0.927,0.704-2.104,1.304-3.467,1.547c-1.353,0.235-2.884,0.191-4.345-0.368
						c-1.46-0.526-2.853-1.525-3.84-2.908c-1.014-1.364-1.581-3.12-1.581-4.922c0.03-1.801,0.626-3.547,1.662-4.893
						c1.009-1.366,2.419-2.341,3.887-2.843c1.47-0.534,3.001-0.553,4.35-0.296c1.359,0.265,2.526,0.884,3.441,1.604
						c1.847,1.472,2.613,3.331,2.869,4.576c0.136,0.631,0.175,1.135,0.164,1.473C115.288,124.165,115.277,124.341,115.258,124.341z"
						/>
				</g>
			</g>
			<g>
				<g>
					<path style="fill:#263238;" d="M102.972,124.24c0.056,0.002,0.74,0.356,1.785,0.882c1.006,0.506,2.491,1.359,4.22,2.349
						l-0.393,0.222c0.004-1.067,0.008-2.212,0.012-3.406c0.015-1.194,0.03-2.34,0.044-3.407l0.389,0.229
						c-1.746,0.961-3.244,1.789-4.258,2.279C103.718,123.896,103.028,124.238,102.972,124.24c-0.056,0.001,0.488-0.355,1.534-1.035
						c1.085-0.699,2.551-1.55,4.267-2.55l0.391-0.228l-0.002,0.457c-0.004,1.067-0.008,2.213-0.012,3.407
						c-0.015,1.194-0.03,2.339-0.044,3.406l-0.006,0.457l-0.387-0.234c-1.699-1.027-3.15-1.902-4.224-2.619
						C103.455,124.602,102.917,124.237,102.972,124.24z"/>
				</g>
			</g>
			<g>
				<g>
					<path style="fill:#263238;" d="M116.779,124.353c0.063-0.003,0.024,0.716,0.34,1.938c0.312,1.198,1.11,2.956,2.9,4.318
						c0.887,0.665,2.003,1.232,3.289,1.462c1.278,0.223,2.719,0.188,4.092-0.326c1.373-0.483,2.686-1.406,3.623-2.687
						c0.964-1.264,1.513-2.891,1.543-4.573c-0.002-1.683-0.524-3.32-1.467-4.6c-0.916-1.297-2.214-2.241-3.579-2.747
						c-1.364-0.537-2.805-0.595-4.087-0.394c-1.29,0.21-2.415,0.758-3.313,1.408c-1.812,1.333-2.638,3.077-2.97,4.27
						C116.814,123.638,116.842,124.358,116.779,124.353c-0.019,0-0.027-0.176-0.025-0.516c-0.005-0.338,0.042-0.841,0.189-1.47
						c0.276-1.241,1.073-3.087,2.944-4.528c0.927-0.704,2.104-1.304,3.467-1.547c1.353-0.235,2.884-0.191,4.345,0.368
						c1.46,0.526,2.853,1.525,3.84,2.908c1.014,1.364,1.581,3.12,1.581,4.922c-0.03,1.801-0.626,3.546-1.662,4.893
						c-1.009,1.366-2.419,2.341-3.887,2.843c-1.47,0.534-3.001,0.553-4.35,0.296c-1.359-0.265-2.526-0.885-3.441-1.604
						c-1.847-1.472-2.613-3.331-2.869-4.576c-0.136-0.631-0.175-1.135-0.164-1.473C116.748,124.53,116.759,124.353,116.779,124.353z
						"/>
				</g>
			</g>
			<g>
				<g>
					<path style="fill:#263238;" d="M129.064,124.455c-0.056-0.002-0.74-0.356-1.785-0.882c-1.006-0.506-2.491-1.359-4.22-2.349
						l0.393-0.222c-0.004,1.067-0.008,2.212-0.012,3.406c-0.015,1.194-0.03,2.34-0.044,3.407l-0.389-0.229
						c1.746-0.961,3.244-1.789,4.258-2.279C128.319,124.799,129.008,124.456,129.064,124.455c0.056-0.001-0.488,0.355-1.534,1.035
						c-1.085,0.7-2.551,1.55-4.267,2.55l-0.391,0.228l0.002-0.457c0.004-1.067,0.008-2.213,0.012-3.407
						c0.015-1.194,0.03-2.339,0.044-3.406l0.006-0.457l0.387,0.234c1.699,1.027,3.15,1.902,4.224,2.62
						C128.581,124.092,129.12,124.457,129.064,124.455z"/>
				</g>
			</g>
			<g>
				<path style="fill:#455A64;" d="M115.545,101.872c-0.014,1.757-1.518,2.839-3.884,2.819c-2.352-0.019-3.824-1.125-3.81-2.882
					c0.009-1.108,0.625-1.919,1.721-2.326c-0.882-0.421-1.347-1.145-1.339-2.101c0.013-1.618,1.419-2.617,3.509-2.6
					c2.103,0.018,3.507,1.04,3.494,2.658c-0.008,0.955-0.499,1.672-1.388,2.078C114.952,99.957,115.555,100.764,115.545,101.872z
					 M114.162,101.82c0.009-1.067-0.927-1.738-2.463-1.751c-1.536-0.012-2.455,0.644-2.464,1.71
					c-0.009,1.092,0.899,1.779,2.435,1.791C113.207,103.583,114.153,102.912,114.162,101.82z M109.603,97.449
					c-0.008,0.956,0.777,1.558,2.105,1.569c1.342,0.011,2.163-0.578,2.171-1.533c0.008-0.969-0.845-1.57-2.146-1.581
					C110.433,95.893,109.611,96.48,109.603,97.449z"/>
				<path style="fill:#455A64;" d="M116.91,103.751c0.005-0.553,0.437-0.938,0.949-0.933c0.498,0.004,0.91,0.395,0.906,0.948
					c-0.005,0.554-0.423,0.952-0.921,0.948C117.331,104.71,116.905,104.305,116.91,103.751z"/>
				<path style="fill:#455A64;" d="M126.889,101.8c-0.014,1.673-1.216,3.007-3.693,2.987c-1.37-0.011-2.723-0.465-3.546-1.206
					l0.645-1.089c0.646,0.614,1.721,1.052,2.898,1.062c1.467,0.012,2.303-0.66,2.312-1.71c0.009-1.093-0.678-1.778-2.92-1.796
					l-2.2-0.018l0.554-5.061l5.466,0.045l-0.01,1.204l-4.304-0.035l-0.285,2.655l1.079,0.009
					C125.778,98.87,126.903,100.083,126.889,101.8z"/>
			</g>
			<g>
				<g>
					<path style="fill:#263238;" d="M125.115,78.5c0.028,0.001,0.05,0.377-0.048,1.047c-0.09,0.671-0.369,1.634-0.973,2.698
						c-0.596,1.066-1.596,2.181-2.947,3.079c-1.36,0.872-3.1,1.517-4.994,1.516c-1.912,0.012-3.631-0.771-4.929-1.709
						c-1.323-0.94-2.256-2.09-2.897-3.117c-0.635-1.038-0.985-1.967-1.141-2.625c-0.158-0.658-0.178-1.033-0.149-1.037
						c0.114-0.035,0.294,1.489,1.618,3.45c0.659,0.965,1.587,2.043,2.863,2.914c1.253,0.873,2.874,1.586,4.634,1.572
						c1.766,0.002,3.418-0.59,4.72-1.393c1.294-0.829,2.276-1.858,2.887-2.852C125.011,80.037,124.985,78.466,125.115,78.5z"/>
				</g>
			</g>
		</g>
	</g>
</g>
<g id="Character">
	<g>
		<path style="fill:#263238;" d="M203.299,223.295c-4.902-47.925-10.189-79.605,5.741-126.183l32.656,7.197
			c14.193,44.608,13.348,92.411,12.367,139.212c-0.089,4.22-0.242,8.672-2.472,12.256c-4.458,7.168-14.575,7.517-23.003,7.043
			c-7.528-0.424-22.39,5.568-27.624,0.141C196.077,257.894,204.015,230.299,203.299,223.295z"/>
		<g>
			<g>
				<path style="fill:#455A64;" d="M363.517,233.582l-28.753-9.115l-28.052-0.796l-78.854,9.808l-47.839,119.093l18.616,82.747
					l-12.266,42.868h165.651c0,0,17.076-200.063,16.602-202.008C368.147,274.234,363.517,233.582,363.517,233.582"/>
			</g>
			<g>
				<path style="fill:#455A64;" d="M227.857,233.48c0,0-38.537,4.808-54.727,28.191c-12.466,18.005-42.869,77.235-42.869,77.235
					l-21.168-10.682c0,0-13.514,44.579-13.885,52.989c-0.564,12.781,0.69,40.653,10.993,49.306
					c12.134,10.19,33.624-0.502,40.256-5.722c8.761-6.896,37.651-60.329,37.651-60.329L227.857,233.48z"/>
			</g>
			<g>
				<g>
					<path style="fill:#263238;" d="M198.634,435.319c-0.009,0.002-0.049-0.129-0.119-0.388c-0.073-0.283-0.172-0.664-0.297-1.15
						c-0.257-1.041-0.624-2.53-1.094-4.434c-0.934-3.883-2.274-9.455-3.928-16.329c-1.642-6.907-3.594-15.118-5.761-24.234
						c-1.079-4.563-2.211-9.351-3.384-14.314c-0.278-1.245-0.623-2.484-0.852-3.765c-0.231-1.279-0.483-2.567-0.694-3.868
						c-0.454-2.598-0.846-5.246-1.185-7.934c-0.652-5.379-0.97-10.689-0.682-15.804c0.25-5.116,1.104-10.007,2.258-14.56
						c2.367-9.101,5.496-16.984,8.309-23.492c2.835-6.505,5.354-11.664,7.091-15.228c0.871-1.757,1.553-3.13,2.029-4.09
						c0.229-0.447,0.408-0.797,0.541-1.057c0.125-0.237,0.192-0.356,0.2-0.352c0.008,0.004-0.044,0.131-0.152,0.376
						c-0.122,0.266-0.286,0.624-0.494,1.08c-0.456,0.97-1.107,2.358-1.941,4.132c-1.681,3.59-4.149,8.771-6.936,15.285
						c-2.765,6.516-5.851,14.398-8.182,23.464c-1.135,4.532-1.973,9.389-2.214,14.469c-0.279,5.079,0.04,10.356,0.69,15.714
						c0.338,2.678,0.728,5.318,1.178,7.91c0.21,1.299,0.459,2.578,0.688,3.852c0.227,1.273,0.571,2.518,0.847,3.761
						c1.163,4.965,2.285,9.755,3.354,14.319c2.126,9.123,4.04,17.342,5.651,24.255c1.585,6.889,2.871,12.473,3.766,16.365
						c0.429,1.913,0.764,3.409,0.999,4.456c0.104,0.491,0.186,0.876,0.247,1.162C198.62,435.182,198.643,435.317,198.634,435.319z"
						/>
				</g>
			</g>
			<g>
				<g>
					<path style="fill:#263238;" d="M143.524,319.113c0.008-0.003,0.042,0.068,0.099,0.21c0.066,0.173,0.145,0.383,0.242,0.639
						c0.196,0.567,0.428,1.424,0.638,2.546c0.409,2.246,0.628,5.551,0.539,9.619c-0.034,4.07-0.542,8.899-0.313,14.246
						c0.228,5.35,1.099,11.195,2.379,17.249c2.562,12.107,5.737,22.945,6.305,31.115c0.325,4.06,0.262,7.369,0.001,9.634
						c-0.123,1.133-0.301,2.003-0.443,2.586c-0.077,0.262-0.14,0.477-0.192,0.655c-0.046,0.147-0.074,0.22-0.082,0.218
						c-0.009-0.003,0.002-0.081,0.031-0.232c0.038-0.18,0.085-0.398,0.141-0.664c0.108-0.586,0.252-1.454,0.344-2.583
						c0.198-2.255,0.205-5.546-0.166-9.582c-0.655-8.096-3.879-18.906-6.448-31.041c-1.284-6.069-2.146-11.949-2.349-17.336
						c-0.204-5.397,0.344-10.223,0.424-14.275c0.136-4.054-0.026-7.338-0.37-9.577c-0.178-1.117-0.376-1.975-0.538-2.548
						c-0.077-0.261-0.14-0.475-0.192-0.651C143.533,319.194,143.516,319.116,143.524,319.113z"/>
				</g>
			</g>
			<g>
				<g>
					<path style="fill:#FFFFFF;" d="M164.78,321.3c-0.129,0.063-2.435-4.382-5.15-9.927c-2.716-5.547-4.812-10.094-4.683-10.157
						c0.129-0.063,2.435,4.381,5.15,9.928C162.812,316.69,164.909,321.237,164.78,321.3z"/>
				</g>
			</g>
			<g>
				<g>
					<path style="fill:#FFFFFF;" d="M181.29,310.203c0.116,0.086-4.46,6.444-10.218,14.2c-5.76,7.758-10.522,13.977-10.637,13.891
						c-0.116-0.086,4.459-6.443,10.219-14.201C176.413,316.337,181.175,310.117,181.29,310.203z"/>
				</g>
			</g>
			<g>
				<g>
					<path style="fill:#FFFFFF;" d="M179.743,333.151c-0.12,0.08-1.328-1.519-2.699-3.57c-1.372-2.052-2.386-3.78-2.267-3.86
						c0.12-0.08,1.328,1.518,2.7,3.57C178.848,331.343,179.863,333.072,179.743,333.151z"/>
				</g>
			</g>
			<g>
				<g>
					<path style="fill:#FFFFFF;" d="M202.035,312.935c0.128,0.066-2.366,5.124-5.569,11.295c-3.204,6.173-5.904,11.122-6.032,11.056
						c-0.128-0.066,2.365-5.123,5.569-11.296C199.207,317.819,201.908,312.869,202.035,312.935z"/>
				</g>
			</g>
			<g>
				<g>
					<path style="fill:#FFFFFF;" d="M212.708,333.12c-0.041,0.052-0.734-0.403-1.757-1.268c-1.022-0.863-2.355-2.157-3.654-3.738
						c-1.297-1.584-2.304-3.145-2.95-4.316c-0.648-1.172-0.958-1.941-0.899-1.971c0.142-0.077,1.681,2.842,4.252,5.957
						C210.25,330.915,212.812,332.996,212.708,333.12z"/>
				</g>
			</g>
			<g>
				<g>
					<path style="fill:#FFFFFF;" d="M229.336,309.767c0.047,0.058-0.841,0.856-2.28,2.137c-1.439,1.28-3.423,3.053-5.572,5.055
						c-2.149,2.004-4.057,3.857-5.436,5.203c-1.379,1.345-2.238,2.174-2.292,2.123c-0.05-0.047,0.714-0.966,2.029-2.38
						c1.314-1.415,3.188-3.316,5.344-5.326c2.156-2.008,4.185-3.743,5.689-4.954C228.322,310.412,229.293,309.714,229.336,309.767z"
						/>
				</g>
			</g>
			<g>
				<g>
					<path style="fill:#FFFFFF;" d="M239.986,340.196c-0.11,0.093-3.761-4.037-8.155-9.223c-4.395-5.188-7.868-9.468-7.758-9.561
						c0.11-0.093,3.76,4.036,8.156,9.224C236.622,335.822,240.096,340.103,239.986,340.196z"/>
				</g>
			</g>
			<g>
				<g>
					<path style="fill:#FFFFFF;" d="M251.674,315.818c0.1,0.103-2.274,2.568-5.301,5.503c-3.029,2.937-5.564,5.233-5.665,5.13
						c-0.1-0.103,2.273-2.567,5.302-5.504C249.038,318.012,251.574,315.715,251.674,315.818z"/>
				</g>
			</g>
			<g>
				<g>
					<path style="fill:#FFFFFF;" d="M270.097,336.976c-0.038,0.053-1.059-0.581-2.609-1.751c-1.55-1.168-3.61-2.896-5.708-4.993
						c-2.096-2.1-3.823-4.162-4.99-5.712c-1.169-1.551-1.802-2.572-1.749-2.61c0.064-0.046,0.801,0.897,2.037,2.381
						c1.234,1.484,2.991,3.49,5.07,5.573c2.081,2.08,4.086,3.837,5.569,5.073C269.199,336.174,270.143,336.912,270.097,336.976z"/>
				</g>
			</g>
			<g>
				<g>
					<path style="fill:#FFFFFF;" d="M281.407,316.875c0.047,0.06-0.638,0.666-1.732,1.653c-1.095,0.986-2.587,2.368-4.161,3.969
						c-1.573,1.603-2.927,3.12-3.893,4.233c-0.967,1.112-1.56,1.808-1.621,1.762c-0.054-0.04,0.436-0.816,1.336-1.995
						c0.899-1.178,2.221-2.748,3.807-4.365c1.587-1.614,3.132-2.965,4.294-3.885C280.599,317.327,281.366,316.822,281.407,316.875z"
						/>
				</g>
			</g>
			<g>
				<g>
					<path style="fill:#FFFFFF;" d="M296.83,340.013c-0.104,0.099-3.354-3.16-7.258-7.277c-3.905-4.119-6.985-7.537-6.881-7.636
						c0.104-0.099,3.353,3.159,7.258,7.278C293.853,336.495,296.934,339.914,296.83,340.013z"/>
				</g>
			</g>
			<g>
				<g>
					<path style="fill:#FFFFFF;" d="M306.878,312.243c0.052,0.056-0.787,0.913-2.124,2.31c-1.338,1.397-3.159,3.35-5.078,5.587
						c-1.918,2.24-3.569,4.339-4.745,5.875c-1.176,1.535-1.894,2.495-1.957,2.452c-0.056-0.038,0.555-1.072,1.66-2.669
						c1.104-1.597,2.718-3.744,4.646-5.997c1.93-2.25,3.805-4.174,5.214-5.509C305.903,312.956,306.832,312.194,306.878,312.243z"/>
				</g>
			</g>
			<g>
				<g>
					<path style="fill:#FFFFFF;" d="M318.212,335.616c-0.044,0.053-0.903-0.56-2.223-1.639c-1.32-1.078-3.092-2.633-4.957-4.447
						c-1.864-1.816-3.465-3.546-4.578-4.837c-1.114-1.291-1.749-2.133-1.697-2.178c0.057-0.049,0.79,0.707,1.969,1.93
						c1.179,1.223,2.814,2.905,4.67,4.712c1.856,1.806,3.58,3.396,4.835,4.542C317.484,334.845,318.26,335.558,318.212,335.616z"/>
				</g>
			</g>
			<g>
				<g>
					<path style="fill:#FFFFFF;" d="M338.164,312.008c0.05,0.046-0.676,0.93-1.944,2.274c-1.268,1.344-3.091,3.134-5.216,4.987
						c-2.128,1.852-4.151,3.414-5.655,4.485c-1.504,1.073-2.479,1.67-2.518,1.615c-0.044-0.062,0.855-0.765,2.297-1.909
						c1.442-1.143,3.418-2.741,5.535-4.584c2.114-1.844,3.967-3.582,5.297-4.855C337.289,312.75,338.109,311.956,338.164,312.008z"
						/>
				</g>
			</g>
			<g>
				<g>
					<path style="fill:#FFFFFF;" d="M356.009,314.366c0.069,0.004,0.088,0.969,0.014,2.527c-0.074,1.557-0.253,3.705-0.572,6.063
						c-0.32,2.358-0.72,4.477-1.063,5.998c-0.343,1.521-0.618,2.446-0.686,2.432c-0.073-0.016,0.075-0.968,0.324-2.501
						c0.25-1.534,0.59-3.651,0.909-5.998c0.317-2.346,0.553-4.478,0.721-6.022C355.824,315.319,355.935,314.362,356.009,314.366z"/>
				</g>
			</g>
			<g style="opacity:0.3;">
				<g>
					<path d="M253.56,338.084c-2.083-2.391-4.272-4.852-7.183-6.11c-3.989-1.725-8.567-0.891-12.822-0.007
						c-17.749,3.685-35.423,7.734-53.006,12.144l1.815,1.908c5.645,7.373,16.294,8.284,25.568,7.815
						c9.274-0.468,19.388-1.468,27.065,3.757c6.381,4.343,13.169,11.387,17.47,17.796c13.346,19.885,22.904,30.167,37.769,43.178
						c15.531,13.594,29.04,29.029,49.365,25.441C312.151,407.722,283.447,372.387,253.56,338.084z"/>
				</g>
			</g>
		</g>
		<g>
			<g>
				<g>
					<path style="fill:#8E5F59;" d="M108.689,331.089l2.339-8.846c0,0-22.548-18.75-18.75-26.82c0,0,0.949-4.272,5.696-4.509
						c0,0-2.611-5.459,0.949-9.494c3.56-4.035,7.595-2.374,7.595-2.374s-1.899-5.696-0.712-8.307
						c0.193-0.425,0.431-0.844,0.693-1.248c1.524-2.347,4.158-3.737,6.956-3.737h1.845l-3.747-13.61
						c-0.498-1.808-0.478-3.72,0.058-5.518l0.702-2.354c1.198-4.02,5.514-6.494,9.586-5.485c2.849,0.706,4.967,1.938,5.032,4.181
						c0.034,1.187,0.034,1.187,0.034,1.187l-4.781,2.611c0,0,7.358,18.275,8.07,19.225c0.712,0.949,7.832,9.494,7.832,9.494
						s0.712-10.681,5.459-11.392c4.747-0.712,6.408,2.136,5.696,4.272c-0.712,2.136-0.634,4.87,0.158,8.131
						c0,0-2.531,23.2-2.294,29.369c0.237,6.169-2.611,6.171-2.611,6.171s-0.475,8.782-2.136,13.529
						c-1.661,4.747-16.851,22.31-23.734,20.412C111.74,344.078,108.689,331.089,108.689,331.089z"/>
				</g>
				<g>
					<g>
						<path style="fill:#794742;" d="M97.798,290.522c0.007-0.017,0.207,0.052,0.581,0.197c0.423,0.172,0.961,0.389,1.624,0.658
							c1.464,0.619,3.476,1.47,5.935,2.509c2.517,1.085,5.487,2.365,8.775,3.783c1.651,0.718,3.382,1.47,5.175,2.25
							c0.887,0.401,1.828,0.749,2.727,1.284c0.871,0.53,1.794,1.207,2.206,2.303c0.233,0.612,0.179,1.305-0.078,1.892
							c-0.277,0.588-0.756,1.028-1.269,1.334c-1.035,0.615-2.197,0.838-3.283,0.961c-2.187,0.28-4.314,0.257-6.283,0.013
							c-3.95-0.478-7.232-1.809-9.581-3.168l0.197-0.026c-1.636,1.542-3.373,2.145-4.532,2.397c-0.588,0.126-1.05,0.163-1.36,0.179
							c-0.311,0.007-0.472-0.001-0.473-0.016c-0.004-0.045,0.647-0.046,1.791-0.337c1.125-0.299,2.796-0.94,4.343-2.46l0.088-0.086
							l0.109,0.06c2.346,1.291,5.591,2.554,9.474,2.99c1.935,0.224,4.021,0.233,6.163-0.05c1.071-0.124,2.153-0.348,3.079-0.9
							c0.457-0.274,0.848-0.646,1.065-1.109c0.199-0.466,0.248-1.014,0.059-1.501c-0.322-0.883-1.15-1.533-1.98-2.032
							c-0.84-0.504-1.774-0.855-2.667-1.262c-1.789-0.789-3.515-1.551-5.163-2.278c-3.271-1.456-6.226-2.771-8.731-3.885
							c-2.431-1.102-4.421-2.004-5.868-2.661c-0.647-0.305-1.172-0.553-1.585-0.748C97.977,290.638,97.791,290.538,97.798,290.522z"
							/>
					</g>
				</g>
				<g>
					<g>
						<path style="fill:#794742;" d="M105.172,278.783c0.004-0.018,0.181,0.015,0.516,0.094c0.334,0.079,0.832,0.189,1.444,0.422
							c1.238,0.421,2.966,1.241,4.909,2.545c3.947,2.5,8.446,7.333,15.153,9.837c1.617,0.742,3.197,1.574,4.467,2.74
							c1.269,1.185,2.089,2.722,2.374,4.291c0.305,1.562-0.1,3.225-1.128,4.26c-1.016,1.052-2.39,1.425-3.567,1.485
							c-1.199,0.056-2.267-0.216-3.138-0.546c-0.876-0.334-1.583-0.719-2.146-1.048c-0.564-0.331-0.987-0.608-1.271-0.8
							c-0.284-0.192-0.428-0.302-0.419-0.317c0.021-0.036,0.644,0.331,1.788,0.939c0.574,0.299,1.285,0.652,2.147,0.952
							c0.86,0.296,1.884,0.528,3.018,0.452c1.115-0.079,2.38-0.457,3.276-1.415c0.906-0.944,1.259-2.424,0.968-3.877
							c-0.275-1.453-1.06-2.905-2.246-3.999c-1.21-1.103-2.739-1.909-4.341-2.644c-1.604-0.734-3.228-1.397-4.681-2.271
							c-1.459-0.854-2.777-1.808-4.003-2.745c-2.445-1.882-4.544-3.685-6.459-4.99c-1.897-1.329-3.571-2.186-4.773-2.66
							C105.863,278.998,105.156,278.841,105.172,278.783z"/>
					</g>
				</g>
				<g>
					<g>
						<path style="fill:#794742;" d="M113.545,265.997c0.009-0.016,0.206,0.076,0.573,0.264c0.413,0.22,0.941,0.5,1.593,0.847
							c1.43,0.787,3.4,1.872,5.81,3.198c2.461,1.377,5.367,3.002,8.584,4.802c1.601,0.91,3.361,1.841,4.837,3.301
							c1.471,1.42,2.537,3.592,2.164,5.85c-0.19,1.117-0.835,2.132-1.709,2.796c-0.879,0.663-1.923,1.02-2.955,1.152
							c-2.102,0.286-4.079-0.473-5.705-1.349c-1.649-0.898-3.071-1.937-4.471-2.79c-1.392-0.869-2.722-1.622-3.968-2.245
							c-2.491-1.252-4.638-1.98-6.152-2.349c-1.513-0.377-2.376-0.476-2.37-0.524c0.002-0.018,0.219-0.005,0.63,0.036
							c0.411,0.042,1.017,0.124,1.785,0.291c1.54,0.311,3.732,0.994,6.268,2.216c1.269,0.608,2.621,1.348,4.032,2.207
							c1.421,0.845,2.859,1.872,4.471,2.734c1.6,0.846,3.467,1.541,5.414,1.266c0.96-0.126,1.919-0.462,2.705-1.057
							c0.78-0.599,1.341-1.483,1.512-2.478c0.337-2.02-0.623-4.054-2.012-5.397c-1.396-1.394-3.114-2.323-4.713-3.244
							c-3.197-1.836-6.083-3.494-8.529-4.899c-2.376-1.386-4.318-2.52-5.728-3.342c-0.632-0.381-1.144-0.69-1.545-0.932
							C113.715,266.135,113.536,266.013,113.545,265.997z"/>
					</g>
				</g>
				<g>
					<g>
						<path style="fill:#794742;" d="M126.93,242.97c0.034-0.008,0.082,0.176,0.132,0.544c-0.016,0.177-0.056,0.403-0.124,0.655
							c-0.123,0.222-0.216,0.523-0.438,0.758c-0.783,1.054-2.352,1.958-4.168,2.553c-1.833,0.572-3.587,0.732-4.839,0.636
							c-1.258-0.098-1.99-0.397-1.972-0.446c0.022-0.089,0.769,0.077,1.984,0.078c1.215,0,2.898-0.212,4.668-0.764
							c1.753-0.574,3.267-1.391,4.041-2.289c0.224-0.203,0.315-0.451,0.456-0.641c0.08-0.211,0.144-0.402,0.19-0.559
							C126.87,243.175,126.896,242.978,126.93,242.97z"/>
					</g>
				</g>
				<g>
					<g>
						<path style="fill:#794742;" d="M132.45,320.957c-0.167,0.062-0.809-3.617-3.519-7.161c-2.66-3.584-6.018-5.215-5.913-5.358
							c0.024-0.051,0.885,0.275,2.129,1.084c1.242,0.803,2.829,2.148,4.2,3.961c1.364,1.817,2.219,3.714,2.648,5.129
							C132.43,320.03,132.506,320.948,132.45,320.957z"/>
					</g>
				</g>
				<g>
					<g>
						<path style="fill:#794742;" d="M125.78,326.809c0.017,0.028-0.187,0.193-0.595,0.435c-0.407,0.243-1.03,0.541-1.841,0.799
							c-1.604,0.524-4.073,0.777-6.574-0.074c-2.499-0.856-4.298-2.568-5.246-3.964c-0.484-0.701-0.795-1.318-0.968-1.758
							c-0.175-0.44-0.235-0.696-0.204-0.708c0.086-0.039,0.455,0.944,1.468,2.247c0.993,1.296,2.746,2.877,5.118,3.69
							c2.373,0.807,4.727,0.63,6.305,0.212C124.842,327.278,125.735,326.726,125.78,326.809z"/>
					</g>
				</g>
				<g>
					<g>
						<path style="fill:#794742;" d="M139.705,314.927c0.009,0.054-0.675,0.232-1.806,0.168c-1.125-0.058-2.686-0.44-4.175-1.336
							c-1.486-0.902-2.548-2.108-3.122-3.078c-0.581-0.972-0.742-1.66-0.69-1.677c0.081-0.034,0.361,0.593,0.997,1.473
							c0.629,0.88,1.675,1.978,3.085,2.836c1.414,0.85,2.871,1.267,3.943,1.415C139.012,314.882,139.698,314.839,139.705,314.927z"
							/>
					</g>
				</g>
				<g>
					<g>
						<path style="fill:#794742;" d="M143.966,297.218c0.005,0.055-0.867,0.19-2.255-0.06c-1.375-0.239-3.269-0.959-4.875-2.424
							c-1.606-1.466-2.496-3.287-2.86-4.634c-0.376-1.359-0.32-2.24-0.265-2.24c0.088-0.01,0.165,0.847,0.616,2.128
							c0.441,1.274,1.338,2.972,2.86,4.361c1.522,1.388,3.295,2.127,4.603,2.45C143.107,297.131,143.968,297.13,143.966,297.218z"/>
					</g>
				</g>
			</g>
			<g>
				<g>
					<path style="fill:#FF725E;" d="M120.551,248.354l19.609,39.661c0,0,5.955,6.449,6.657,11.249l8.555,11.267l6.051-3.793
						l-4.117-13.216c0,0-6.107-6.36-6.107-11.576l-22.339-37.766L120.551,248.354z"/>
				</g>
				<g>
					<g>
						<path style="fill:#263238;" d="M151.199,281.945c0.078,0.102-2.099,1.914-5.108,3.689c-3.011,1.781-5.705,2.708-5.75,2.582
							c-0.058-0.142,2.513-1.272,5.486-3.031C148.801,283.431,151.105,281.816,151.199,281.945z"/>
					</g>
				</g>
				<g>
					<g>
						<path style="fill:#263238;" d="M157.145,293.521c0.069,0.126-2.192,1.494-5.049,3.054c-2.858,1.561-5.23,2.723-5.299,2.597
							c-0.069-0.126,2.191-1.493,5.049-3.054C154.704,294.557,157.076,293.395,157.145,293.521z"/>
					</g>
				</g>
				<g>
					<g>
						<path style="fill:#263238;" d="M134.843,254.296c0.07,0.126-1.866,1.339-4.323,2.71c-2.458,1.371-4.507,2.38-4.577,2.255
							c-0.07-0.125,1.865-1.339,4.324-2.71C132.724,255.18,134.773,254.17,134.843,254.296z"/>
					</g>
				</g>
				<g>
					<path style="fill:#455A64;" d="M142.939,274.909l0.179-0.083c0.99-0.458,2.166-0.052,2.662,0.921l4.401,8.643
						c0.51,1.002,0.109,2.228-0.896,2.734l0,0c-0.984,0.495-2.183,0.116-2.703-0.855l-4.58-8.56
						C141.451,276.679,141.879,275.399,142.939,274.909z"/>
				</g>
			</g>
		</g>
		<g>
			<g>
				<path style="fill:#455A64;" d="M302.443,419.65l-38.993-51.913l29-29.838l36.198,32.838l9.517-56.372l17.174-79.034
					c0,0,34.703,11.548,34.703,42.66c0,31.113-11.703,127.836-19.51,142.991c-2.87,5.571-5.391,11.609-9.202,15.76
					c-6.555,7.141-15.179,10.504-23.286,8.912C315.133,441.159,302.443,419.65,302.443,419.65z"/>
			</g>
			<g>
				<g>
					<path style="fill:#8E5F59;" d="M151.964,324.271c0,0-0.128-5.773,7.055-5.644c0,0,4.618,0.128,10.391,7.44l5.003,1.796
						l-18.954-17.318c0,0,3.631-4.869,7.607-3.715c3.977,1.155,6.215,6.665,10.576,8.333c4.361,1.668,10.134,6.286,10.134,6.286
						l12.828,2.181l1.155-1.411l-26.114-26.107c0,0,4.382-6.126,9.642-2.022c5.259,4.105,13.265,12.222,14.804,13.377
						c1.539,1.155,7.312,5.131,7.312,5.131l10.006,1.796l7.44-2.694c0,0-1.924-5.773,3.335-7.055
						c5.26-1.283,17.189,4.105,17.189,4.105s3.914-3.156,10.328-3.156c6.414,0,11.355,5.648,11.74,10.01
						c0.385,4.361-12.96,21.367-12.96,21.367l-5.516,3.335l-33.737,5.259l-6.286-0.641l-15.068,2.95l-30.214-9.878
						c0,0-2.694-5.003,2.181-5.901L151.964,324.271z"/>
				</g>
				<g>
					<g>
						<path style="fill:#794742;" d="M206.335,332.575c-0.016,0.058-0.619-0.153-1.745-0.253c-1.127-0.09-2.772,0.052-4.727,0.599
							c-1.965,0.506-4.219,1.441-6.889,2.032c-2.682,0.592-5.754,0.46-8.817-0.178c-3.077-0.617-5.91-1.541-8.514-2.208
							c-2.602-0.678-4.992-1.088-7.017-1.182c-2.024-0.087-3.662,0.127-4.764,0.388c-1.106,0.254-1.691,0.499-1.711,0.448
							c-0.007-0.017,0.135-0.086,0.413-0.205c0.275-0.128,0.696-0.275,1.247-0.439c1.102-0.326,2.766-0.601,4.827-0.56
							c2.06,0.048,4.493,0.428,7.121,1.085c2.632,0.647,5.461,1.554,8.499,2.162c3.027,0.629,6.007,0.768,8.618,0.219
							c2.613-0.549,4.893-1.451,6.895-1.918c1.993-0.508,3.694-0.599,4.838-0.444c0.571,0.095,1.009,0.181,1.294,0.289
							C206.193,332.502,206.341,332.558,206.335,332.575z"/>
					</g>
				</g>
				<g>
					<g>
						<path style="fill:#794742;" d="M198.482,331.431c-0.027,0.101-1.639-0.546-4.375-0.706c-1.362-0.082-2.996-0.012-4.771,0.306
							c-0.891,0.158-1.798,0.39-2.757,0.667c-0.953,0.257-2.023,0.532-3.13,0.345c-2.158-0.392-3.949-1.354-5.6-2.129
							c-1.602-0.804-3.061-1.537-4.328-2.173c-1.234-0.608-2.256-1.041-2.978-1.292c-0.718-0.266-1.141-0.328-1.132-0.382
							c0.003-0.018,0.11-0.013,0.313,0.012c0.205,0.021,0.505,0.068,0.879,0.177c0.754,0.196,1.813,0.583,3.074,1.152
							c1.265,0.561,2.738,1.293,4.381,2.075c1.642,0.748,3.464,1.686,5.464,2.045c0.988,0.172,1.977-0.072,2.925-0.321
							c0.949-0.267,1.902-0.501,2.809-0.647c1.82-0.299,3.493-0.332,4.88-0.2c1.39,0.117,2.489,0.397,3.23,0.624
							C198.106,331.211,198.491,331.407,198.482,331.431z"/>
					</g>
				</g>
				<g>
					<g>
						<path style="fill:#794742;" d="M203.421,314.758c0.101,0.12-1.195,1.232-2.265,2.996c-1.09,1.753-1.496,3.411-1.649,3.375
							c-0.131-0.009,0.059-1.799,1.205-3.648C201.843,315.624,203.355,314.645,203.421,314.758z"/>
					</g>
				</g>
				<g>
					<g>
						<path style="fill:#794742;" d="M215.165,322.959c-0.154-0.022,0.039-1.698-0.278-3.72c-0.297-2.026-0.978-3.569-0.837-3.636
							c0.111-0.071,1.038,1.435,1.352,3.558C215.732,321.28,215.293,322.994,215.165,322.959z"/>
					</g>
				</g>
				<g>
					<g>
						<path style="fill:#794742;" d="M231.519,321.039c0.023,0.068-1.158,0.54-3.086,1.249c-1.926,0.712-4.609,1.642-7.561,2.68
							c-0.737,0.263-1.466,0.495-2.155,0.76c-0.681,0.271-1.34,0.534-1.975,0.787c-1.227,0.477-2.355,0.915-3.357,1.304
							c-1.918,0.729-3.12,1.147-3.15,1.082c-0.03-0.065,1.121-0.603,3.008-1.421c0.993-0.422,2.111-0.896,3.327-1.412
							c0.634-0.263,1.292-0.536,1.972-0.818c0.688-0.272,1.417-0.507,2.156-0.771c2.96-1.041,5.658-1.914,7.615-2.537
							C230.273,321.32,231.496,320.971,231.519,321.039z"/>
					</g>
				</g>
				<g>
					<g>
						<path style="fill:#794742;" d="M247.254,326.598c-0.013,0.034-0.426-0.094-1.161-0.352c-0.835-0.299-1.874-0.671-3.105-1.112
							c-2.619-0.943-6.241-2.23-10.274-3.556c-2.011-0.681-3.958-1.226-5.69-1.921c-1.727-0.686-3.202-1.589-4.193-2.615
							c-1.009-1.008-1.545-2.065-1.786-2.815c-0.234-0.76-0.225-1.204-0.2-1.205c0.046-0.008,0.106,0.423,0.391,1.136
							c0.291,0.705,0.852,1.686,1.853,2.621c0.983,0.951,2.411,1.783,4.112,2.433c1.698,0.654,3.66,1.191,5.676,1.872
							c4.042,1.328,7.653,2.673,10.242,3.706c1.295,0.516,2.335,0.954,3.048,1.268C246.88,326.373,247.268,326.564,247.254,326.598z
							"/>
					</g>
				</g>
				<g>
					<g>
						<path style="fill:#794742;" d="M251.702,311.184c-0.002,0.066-0.952,0.069-2.443-0.209c-1.492-0.263-3.516-0.785-5.719-1.458
							c-2.201-0.681-4.165-1.381-5.568-1.938c-1.404-0.554-2.246-0.964-2.22-1.029c0.028-0.068,0.914,0.219,2.345,0.682
							c1.615,0.516,3.506,1.119,5.596,1.787c2.192,0.67,4.186,1.243,5.643,1.595C250.79,310.982,251.707,311.107,251.702,311.184z"
							/>
					</g>
				</g>
				<g>
					<polygon style="fill:#8E5F59;" points="244.368,340.399 265.254,366.194 288.82,341.634 262.091,312.425 					"/>
				</g>
			</g>
			<g>
				<g>
					<path style="fill:#263238;" d="M379.65,380.402c0,0-0.028,0.272-0.107,0.799c-0.085,0.541-0.208,1.32-0.368,2.337
						c-0.33,2.053-0.833,5.08-1.544,8.966c-0.717,3.885-1.642,8.632-2.944,14.094c-1.311,5.455-2.953,11.657-5.61,18.226
						c-1.365,3.259-3.044,6.622-5.477,9.657c-2.43,3.019-5.488,5.753-9.115,7.845c-3.625,2.072-7.852,3.466-12.318,3.67
						c-4.464,0.218-9.065-0.728-13.397-2.53c-4.343-1.798-8.44-4.44-12.142-7.658c-3.718-3.21-7.09-6.937-10.307-10.874
						c-3.206-3.949-6.38-8.035-9.506-12.25c-3.147-4.199-6.341-8.459-9.572-12.77c-8.304-11.085-16.355-21.832-23.992-32.026
						l-0.129-0.172l0.15-0.154c10.404-10.689,20.158-20.711,29.021-29.817l0.14-0.143l0.142,0.113
						c1.967,1.566,3.721,3.188,5.496,4.766c1.755,1.587,3.473,3.141,5.152,4.661c3.341,3.057,6.529,5.974,9.552,8.74
						c6.017,5.557,11.374,10.505,15.972,14.752l-0.017-0.013c6.578,4.935,9.868,10.824,11.216,14.948
						c0.307,1.053,0.603,1.976,0.719,2.807c0.158,0.822,0.293,1.512,0.307,2.082c0.04,0.555,0.07,0.979,0.092,1.281
						c0.018,0.287,0.018,0.433,0.018,0.433s-0.026-0.145-0.057-0.431c-0.031-0.3-0.073-0.723-0.13-1.274
						c-0.026-0.566-0.174-1.252-0.342-2.067c-0.127-0.825-0.433-1.74-0.75-2.782c-0.715-2.055-1.854-4.514-3.68-7.087
						c-0.905-1.29-1.981-2.604-3.24-3.899c-1.255-1.292-2.674-2.605-4.313-3.775l-0.01-0.007l-0.007-0.006
						c-4.614-4.227-9.991-9.154-16.03-14.686c-3.03-2.757-6.226-5.664-9.576-8.711c-1.683-1.514-3.404-3.064-5.162-4.646
						c-1.762-1.562-3.568-3.215-5.456-4.715l0.281-0.03c-8.85,9.118-18.59,19.155-28.978,29.858l0.021-0.326
						c7.64,10.189,15.695,20.932,24.003,32.013c3.231,4.311,6.423,8.572,9.57,12.771c3.125,4.215,6.294,8.299,9.489,12.241
						c3.206,3.928,6.555,7.634,10.238,10.821c3.668,3.195,7.714,5.809,12.001,7.591c4.276,1.785,8.806,2.721,13.192,2.515
						c4.387-0.191,8.547-1.553,12.125-3.587c3.579-2.054,6.607-4.746,9.015-7.721c2.41-2.989,4.081-6.308,5.451-9.547
						c2.665-6.527,4.332-12.712,5.667-18.153c1.327-5.448,2.28-10.186,3.028-14.063c0.742-3.879,1.276-6.899,1.64-8.946
						c0.182-1.013,0.322-1.789,0.419-2.328C379.587,380.668,379.65,380.402,379.65,380.402z"/>
				</g>
			</g>
			<g>
				<g>
					<path style="fill:#263238;" d="M340.684,278.364c0.009,0.002,0,0.083-0.027,0.238c-0.035,0.186-0.077,0.412-0.129,0.688
						c-0.134,0.645-0.316,1.525-0.546,2.635c-0.491,2.284-1.179,5.595-2.001,9.69c-1.647,8.19-3.731,19.544-5.563,32.157
						c-1.824,12.619-3.048,24.099-3.793,32.419c-0.375,4.16-0.654,7.53-0.831,9.859c-0.095,1.13-0.17,2.025-0.225,2.681
						c-0.029,0.28-0.052,0.509-0.072,0.697c-0.019,0.157-0.033,0.237-0.042,0.236c-0.009,0-0.013-0.082-0.011-0.24
						c0.005-0.189,0.012-0.419,0.02-0.7c0.031-0.658,0.074-1.555,0.127-2.688c0.115-2.335,0.339-5.71,0.667-9.877
						c0.651-8.334,1.819-19.832,3.644-32.463c1.834-12.625,3.977-23.98,5.718-32.157c0.868-4.089,1.612-7.389,2.164-9.66
						c0.27-1.102,0.484-1.974,0.641-2.614c0.072-0.272,0.131-0.494,0.18-0.677C340.649,278.438,340.676,278.362,340.684,278.364z"/>
				</g>
			</g>
			<g>
				<g>
					<path style="fill:#FFFFFF;" d="M354.838,338.484c-0.024,0.027-0.283-0.165-0.73-0.536c-0.449-0.369-1.078-0.925-1.838-1.63
						c-1.522-1.41-3.549-3.443-5.639-5.823c-2.089-2.383-3.84-4.659-5.039-6.352c-0.6-0.846-1.07-1.542-1.377-2.035
						c-0.309-0.491-0.465-0.773-0.436-0.793c0.063-0.044,0.837,0.978,2.108,2.608c1.271,1.631,3.058,3.857,5.135,6.228
						c2.079,2.368,4.053,4.43,5.505,5.903C353.977,337.527,354.89,338.427,354.838,338.484z"/>
				</g>
			</g>
			<g>
				<g>
					<path style="fill:#FFFFFF;" d="M366.446,310.176c0.125,0.071-1.892,3.858-4.505,8.457c-2.614,4.601-4.833,8.272-4.958,8.201
						c-0.125-0.071,1.892-3.857,4.506-8.458C364.101,313.777,366.321,310.105,366.446,310.176z"/>
				</g>
			</g>
			<g>
				<g>
					<path style="fill:#FFFFFF;" d="M383.042,339.677c-0.133,0.056-2.168-4.475-4.546-10.119
						c-2.379-5.646-4.199-10.266-4.067-10.322c0.133-0.056,2.168,4.474,4.547,10.12C381.353,335,383.174,339.621,383.042,339.677z"
						/>
				</g>
			</g>
		</g>
		<g>
			<g>
				<g>
					<path style="fill:#263238;" d="M266.918,56.77c5.84-0.534,11.72,0.985,17.056,3.418c13.201,6.02,23.355,17.502,30.074,30.362
						c6.719,12.86,10.298,27.112,13.124,41.344c3.614,18.196,6.093,36.617,7.419,55.121c0.399,5.572,3.351,46.124,3.996,54.376
						l-86.651-176.5C255.292,60.082,261.078,57.304,266.918,56.77z"/>
				</g>
				<g>
					<g>
						<g>
							<path style="fill:#8E5F59;" d="M297.137,90.261l-38.638-15.571l-10.118,1.128c-22.755-0.028-38.567,24.993-38.804,43.422
								c-0.263,20.474,0.224,45.48,3.405,60.588c6.398,30.377,30.063,33.098,30.063,33.098c0.001-0.047-0.278,8.295-0.52,18.484
								c-0.436,18.31,14.494,33.287,32.805,32.914l0,0c17.456-0.356,31.44-14.574,31.505-32.034l0.487-131.587
								C307.151,95.106,302.727,90.57,297.137,90.261z"/>
						</g>
					</g>
				</g>
				<g>
					<g>
						<g>
							<g>
								<g>
									<g>
										<g>
											<g>
												<g>
													<g>
														<g>
															<g>
																<g>
																	<g>
																		<g>
																			<g>
																				<g>
																					<path style="fill:#263238;" d="M219.435,141.611c0.031,2.078,1.816,3.765,3.986,3.773
																						c2.166,0.008,3.901-1.665,3.871-3.743c-0.031-2.077-1.816-3.766-3.981-3.774
																						C221.14,137.857,219.405,139.535,219.435,141.611z"/>
																				</g>
																			</g>
																		</g>
																	</g>
																</g>
															</g>
														</g>
													</g>
												</g>
											</g>
										</g>
									</g>
								</g>
							</g>
							<g>
								<g>
									<g>
										<g>
											<g>
												<g>
													<g>
														<g>
															<g>
																<g>
																	<g>
																		<g>
																			<g>
																				<g>
																					<g>
																						<path style="fill:#263238;" d="M215.644,129.694c0.513,0.488,3.378-1.863,7.604-2.064
																							c4.219-0.261,7.429,1.758,7.862,1.217c0.214-0.241-0.329-1.14-1.728-2.056
																							c-1.379-0.912-3.694-1.75-6.326-1.608c-2.631,0.147-4.798,1.227-6.02,2.282
																							C215.787,128.528,215.393,129.476,215.644,129.694z"/>
																					</g>
																				</g>
																			</g>
																		</g>
																	</g>
																</g>
															</g>
														</g>
													</g>
												</g>
											</g>
										</g>
									</g>
								</g>
							</g>
							<g>
								<g>
									<g>
										<g>
											<g>
												<g>
													<g>
														<g>
															<g>
																<g>
																	<g>
																		<g>
																			<g>
																				<g>
																					<path style="fill:#263238;" d="M243.457,162.771c0.008-0.241-2.642-0.563-6.926-0.894
																						c-1.084-0.058-2.117-0.221-2.335-0.948c-0.293-0.768,0.1-1.952,0.56-3.234c0.884-2.662,1.809-5.453,2.78-8.377
																						c3.844-11.921,6.571-21.702,6.09-21.852c-0.482-0.151-3.99,9.39-7.835,21.31
																						c-0.922,2.938-1.804,5.739-2.643,8.419c-0.347,1.247-0.98,2.673-0.347,4.264
																						c0.331,0.792,1.152,1.337,1.854,1.489c0.702,0.176,1.309,0.157,1.846,0.163
																						C240.794,163.126,243.453,163.012,243.457,162.771z"/>
																				</g>
																			</g>
																		</g>
																	</g>
																</g>
															</g>
														</g>
													</g>
												</g>
											</g>
										</g>
									</g>
								</g>
							</g>
							<g>
								<g>
									<g>
										<g>
											<g>
												<g>
													<g>
														<g>
															<g>
																<g>
																	<g>
																		<g>
																			<g>
																				<path style="fill:#794742;" d="M243.045,212.924c0,0,20.666,0.296,40.461-12.995
																					c0,0-9.861,21.773-40.652,20.444L243.045,212.924z"/>
																			</g>
																		</g>
																	</g>
																</g>
															</g>
														</g>
													</g>
												</g>
											</g>
										</g>
									</g>
								</g>
							</g>
							<g>
								<g>
									<g>
										<g>
											<g>
												<g>
													<g>
														<g>
															<g>
																<g>
																	<g>
																		<g>
																			<g>
																				<path style="fill:#794742;" d="M245.755,172.866c1.419-2.085,4.027-3.323,6.684-3.17
																					c1.843,0.106,3.741,0.897,4.93,2.335c1.189,1.437,1.528,3.546,0.588,5.02c-1.061,1.661-3.425,2.15-5.47,1.678
																					c-2.046-0.472-3.848-1.712-5.563-2.952c-0.474-0.343-0.959-0.702-1.269-1.19
																					c-0.31-0.486-0.403-1.14-0.073-1.573"/>
																			</g>
																		</g>
																	</g>
																</g>
															</g>
														</g>
													</g>
												</g>
											</g>
										</g>
									</g>
								</g>
							</g>
							<g>
								<g>
									<g>
										<g>
											<g>
												<g>
													<g>
														<g>
															<g>
																<g>
																	<g>
																		<g>
																			<g>
																				<g>
																					<path style="fill:#263238;" d="M256.04,165.07c-0.689-0.006-0.468,4.582-4.231,8.034
																						c-3.754,3.463-8.67,3.193-8.674,3.836c-0.05,0.292,1.133,0.837,3.2,0.789c2.028-0.032,4.952-0.831,7.254-2.943
																						c2.296-2.116,3.192-4.832,3.254-6.722C256.921,166.139,256.352,165.028,256.04,165.07z"/>
																				</g>
																			</g>
																		</g>
																	</g>
																</g>
															</g>
														</g>
													</g>
												</g>
											</g>
										</g>
									</g>
								</g>
							</g>
							<g>
								<g>
									<g>
										<g>
											<g>
												<g>
													<g>
														<g>
															<g>
																<g>
																	<g>
																		<g>
																			<g>
																				<g>
																					<g>
																						<g>
																							<path style="fill:#263238;" d="M218.257,117.881c0.791,0.922,3.653-0.219,7.151-0.442
																								c3.49-0.345,6.497,0.321,7.129-0.717c0.275-0.502-0.24-1.44-1.581-2.284
																								c-1.322-0.842-3.494-1.474-5.896-1.281c-2.401,0.198-4.442,1.171-5.61,2.215
																								C218.262,116.42,217.906,117.429,218.257,117.881z"/>
																						</g>
																					</g>
																				</g>
																			</g>
																		</g>
																	</g>
																</g>
															</g>
														</g>
													</g>
												</g>
											</g>
										</g>
									</g>
								</g>
							</g>
							<g>
								<g>
									<g>
										<g>
											<g>
												<g>
													<g>
														<g>
															<g>
																<g>
																	<g>
																		<g>
																			<g>
																				<g>
																					<path style="fill:#263238;" d="M266.79,141.365c0.1,2.076-1.576,3.871-3.741,4.015
																						c-2.161,0.144-3.998-1.417-4.098-3.493c-0.099-2.075,1.576-3.873,3.736-4.017
																						C264.853,137.725,266.69,139.29,266.79,141.365z"/>
																				</g>
																			</g>
																		</g>
																	</g>
																</g>
															</g>
														</g>
													</g>
												</g>
											</g>
										</g>
									</g>
								</g>
							</g>
							<g>
								<g>
									<g>
										<g>
											<g>
												<g>
													<g>
														<g>
															<g>
																<g>
																	<g>
																		<g>
																			<g>
																				<g>
																					<g>
																						<path style="fill:#263238;" d="M274.042,129.199c-0.481,0.519-3.488-1.647-7.719-1.583
																							c-4.227,0.004-7.305,2.221-7.77,1.708c-0.229-0.227,0.257-1.158,1.595-2.16
																							c1.319-0.997,3.577-1.979,6.212-2.002c2.636-0.018,4.865,0.924,6.151,1.901
																							C273.826,128.044,274.279,128.965,274.042,129.199z"/>
																					</g>
																				</g>
																			</g>
																		</g>
																	</g>
																</g>
															</g>
														</g>
													</g>
												</g>
											</g>
										</g>
									</g>
								</g>
							</g>
							<g>
								<g>
									<g>
										<g>
											<g>
												<g>
													<g>
														<g>
															<g>
																<g>
																	<g>
																		<g>
																			<g>
																				<g>
																					<g>
																						<g>
																							<path style="fill:#263238;" d="M272.198,115.785c-0.732,0.97-3.66,0.01-7.165,0.007
																								c-3.505-0.125-6.465,0.728-7.16-0.269c-0.306-0.484,0.15-1.452,1.435-2.379
																								c1.267-0.923,3.395-1.69,5.804-1.648c2.409,0.046,4.507,0.89,5.738,1.859
																								C272.101,114.327,272.52,115.312,272.198,115.785z"/>
																						</g>
																					</g>
																				</g>
																			</g>
																		</g>
																	</g>
																</g>
															</g>
														</g>
													</g>
												</g>
											</g>
										</g>
									</g>
								</g>
							</g>
						</g>
					</g>
				</g>
				<g>
					<path style="fill:#263238;" d="M262.957,71.427c9.785-3.943,24.749-2.61,33.15,3.77c8.401,6.381,13.647,16.358,15.562,26.733
						c1.914,10.374-0.654,25.743-3.391,35.931c-15.839-20.397-32.138-43.933-47.422-64.749L262.957,71.427z"/>
				</g>
				<g>
					<g>
						<g>
							<g>
								<path style="fill:#263238;" d="M255.469,62.159c-53.671-7.563-48.584,61.063-48.584,61.063l0,0
									c23.4-16.715,46.863-48.654,46.863-48.654l8.464-1.43L255.469,62.159z"/>
							</g>
						</g>
					</g>
				</g>
				<g>
					<g>
						<g>
							<g>
								<g>
									<g>
										<g>
											<g>
												<g>
													<g>
														<g>
															<g>
																<g>
																	<g>
																		<path style="fill:#8E5F59;" d="M301.216,152.439c-0.109-2.28,2.258-7.789,4.492-8.253
																			c5.967-1.239,16.83-1.299,17.697,13.968c1.184,20.871-20.014,17.754-20.085,17.158
																			C303.265,174.847,301.592,160.314,301.216,152.439z"/>
																	</g>
																</g>
															</g>
														</g>
													</g>
												</g>
											</g>
										</g>
									</g>
								</g>
							</g>
						</g>
					</g>
					<g>
						<g>
							<g>
								<g>
									<g>
										<g>
											<g>
												<g>
													<g>
														<g>
															<g>
																<g>
																	<g>
																		<g>
																			<path style="fill:#794742;" d="M309.247,167.044c0.088-0.072,0.378,0.234,1.008,0.481
																				c0.616,0.24,1.657,0.371,2.722-0.098c2.159-0.934,3.817-4.54,3.705-8.308c-0.054-1.903-0.555-3.689-1.313-5.149
																				c-0.724-1.49-1.772-2.501-2.894-2.635c-1.118-0.193-1.867,0.516-2.089,1.117c-0.247,0.601-0.09,1.01-0.199,1.051
																				c-0.055,0.057-0.467-0.323-0.348-1.194c0.063-0.42,0.279-0.927,0.747-1.356c0.478-0.435,1.202-0.685,1.98-0.645
																				c1.616,0.021,3.148,1.419,3.981,3.021c0.922,1.604,1.53,3.609,1.59,5.746c0.105,4.213-1.824,8.271-4.792,9.314
																				c-1.445,0.465-2.697,0.093-3.357-0.364C309.313,167.547,309.177,167.085,309.247,167.044z"/>
																		</g>
																	</g>
																</g>
															</g>
														</g>
													</g>
												</g>
											</g>
										</g>
									</g>
								</g>
							</g>
						</g>
					</g>
				</g>
				<g>
					<path style="fill:#263238;" d="M250.817,73.138c1.783-0.427,4.564-0.246,7.668,0.815c1.552,0.52,3.199,1.232,4.885,2.074
						c0.417,0.212,0.842,0.427,1.275,0.648c0.394,0.194,1.017,0.575,1.503,0.887c1.024,0.672,1.957,1.438,2.866,2.251
						c1.791,1.632,3.404,3.475,4.968,5.345c0.754,0.9,1.529,1.825,2.325,2.775c0.384,0.447,0.769,0.886,1.149,1.297
						c0.425,0.458,0.855,0.923,1.291,1.393c3.521,3.819,7.512,7.949,11.741,12.713c4.202,4.755,8.69,10.208,12.531,16.821
						c1.904,3.304,3.672,6.861,5.09,10.667c1.42,3.88,2.467,7.644,3.408,11.58c1.795,7.871,2.871,16.177,3.068,24.67
						c0.14,5.039-0.046,9.986-0.443,14.827c15.042,12.909,24.496,32.195,25.319,52.018c0.809,5.331-2.221,11.789-6.526,15.763
						c-0.609,0.83-1.43,1.806-2.554,2.932c-1.702,1.656-4.016,3.713-7.654,5.329c-1.818,0.78-3.929,1.406-6.381,1.571
						c-2.425,0.166-5.287-0.169-8.051-1.522c-2.748-1.326-5.067-3.498-6.8-5.895c-1.747-2.398-3.063-5.087-4.025-7.777
						c-2.117-5.452-3.025-11.691-3.111-18.041c-0.042-6.351,0.73-12.833,1.749-19.28c1.013-6.479,2.222-12.876,2.915-19.375
						c0.714-6.536,1.07-13.301,0.878-20.17c-0.175-7.617-1.042-14.989-2.442-21.971c-0.731-3.473-1.592-6.934-2.568-9.96
						c-1.013-3.091-2.306-6.025-3.735-8.85c-2.877-5.644-6.495-10.784-10.117-15.651c-3.621-4.858-7.222-9.459-10.349-13.845
						c-0.396-0.556-0.787-1.105-1.172-1.647c-0.421-0.599-0.801-1.176-1.163-1.739c-0.721-1.126-1.354-2.184-1.96-3.18
						c-1.206-1.996-2.297-3.744-3.372-5.179c-0.537-0.703-1.062-1.349-1.577-1.877c-0.289-0.278-0.441-0.461-0.831-0.778
						c-0.35-0.292-0.693-0.577-1.03-0.857c-1.332-1.109-2.528-2.048-3.625-2.834c-2.188-1.573-3.967-2.463-5.289-2.988
						c-1.315-0.537-2.187-0.814-2.288-1.335C248.284,74.297,249.019,73.549,250.817,73.138z"/>
				</g>
			</g>
			<g>
				<path style="fill:#263238;" d="M385.485,261.231c-4.018-5.749-9.1-11.473-15.782-14.129c-7.497-2.98-19.777,1.022-26.992,4.631
					c-7.215,3.609-14.493,8.027-22.559,8.08c-3.496,0.023-7.117-0.87-9.768-3.15c-2.65-2.28-4.104-6.114-2.967-9.42
					c1.537-4.471,6.699-6.307,10.438-9.2c5.758-4.456,8.356-11.867,9.692-19.024c1.336-7.157,1.731-14.572,4.395-21.348
					c7.632,4.801,2.461,18.562,9.284,24.456c3.643,3.147,9.049,2.566,13.826,3.163c7.434,0.93,18.876,5.92,22.89,12.247
					C381.955,243.864,388.498,252.975,385.485,261.231"/>
			</g>
			<g>
				<path style="fill:#263238;" d="M301.212,163.111c0,26.889-7.562,56.229-5.951,72.926c1.611,16.696,1.727,25.896,2.066,42.667
					c0.321,15.904-3.15,31.871-10.045,46.206c11.491-2.907,23.725-6.256,31.504-15.199c8.72-10.025,9.605-24.385,11.219-37.574
					c1.614-13.188,9.586-21.103,21.366-23.909L301.212,163.111z"/>
			</g>
		</g>
	</g>
</g>
<g id="Floor_1_">
	<g>
		<g>
			<path style="fill:#263238;" d="M457.281,478.187c0,0.144-92.966,0.26-207.619,0.26c-114.693,0-207.639-0.117-207.639-0.26
				s92.946-0.26,207.639-0.26C364.315,477.927,457.281,478.043,457.281,478.187z"/>
		</g>
	</g>
</g>
</svg>
